<svg xmlns="http://www.w3.org/2000/svg" viewBox="0 0 299.29 47.48"><g id="Livello_2" data-name="Livello 2"><g id="Livello_1-2" data-name="Livello 1"><path d="M142.41,47.34H4.6a8,8,0,0,1-2.72,0C1.13,47.05.62,46.14,0,45.5c.6-.58,1.11-1.42,1.83-1.66a8.58,8.58,0,0,1,2.73,0q113.42-.44,226.82-.93c21.37-.13,42.73-.88,64.1-1.34a6.63,6.63,0,0,1,2.49.16,2.26,2.26,0,0,1,1.32,1.56A2.21,2.21,0,0,1,298,44.84a8.14,8.14,0,0,1-2.72.23Z"/><path d="M16.39,17.14l11.9-2.81A8.2,8.2,0,0,1,31,13.84a7.8,7.8,0,0,1,2.35,1.26c-.53.72-.9,1.77-1.61,2.1a22.7,22.7,0,0,1-4,1c-3.13.76-6.23,1.59-9.37,2.3a1.66,1.66,0,0,0-1.52,2.08c.2,2.36.31,4.73.44,7.1.19,3.38.77,4.06,4.22,3.74,3.26-.3,6.5-1,9.74-1.55,1.43-.25,2.83-.63,4.25-1s2.83-.69,3.25,1c.46,1.91-1.19,2.18-2.55,2.5-1.79.43-3.57.91-5.37,1.22a85.61,85.61,0,0,1-9.76,1.41c-5,.26-6.93-1.63-7.29-6.64q-.22-3.09-.38-6.18c-.07-1.23-.07-2.29-1.49-3-1.24-.65-1.06-1.86,0-2.87.4-.39,1-.92,1-1.37-.18-3.7-.64-7.39-.65-11.09a12.83,12.83,0,0,1,1.4-4.84,2.84,2.84,0,0,1,2.3.21c.8,1.25,1.75.94,2.8.79q6.59-1,13.18-1.91c1.37-.19,3-.5,3.25,1.46.19,1.79-1.39,1.89-2.71,2.08-4.61.69-9.22,1.44-13.85,2.05-1.74.23-2.29,1-2.21,2.72C16.48,11.19,16.39,13.93,16.39,17.14Z"/><path d="M237.72,14.5c-.82,2-1.34,3.3-1.91,4.59-1.36,3.16-2.63,6.37-4.2,9.43A3,3,0,0,1,229,29.69c-1.34-.37-1.22-1.65-.69-2.86,2.12-4.75,4.09-9.56,6.34-14.24.59-1.22,2-2.83,3-2.84s2.48,1.55,3.07,2.76c1.42,2.85,2.44,5.9,3.79,9.31,1.18-1.54,2.2-2.74,3.08-4.05,2-2.91,3.86-5.88,5.78-8.83,2.14-3.26,4.66-3.58,6.83-.32a72.74,72.74,0,0,1,5.73,10.92c1.77,4,3.14,8.13,4.66,12.22.47,1.26.95,2.72-.73,3.33s-2.19-.88-2.67-2.1C265,27.57,263,22.12,260.8,16.75a77,77,0,0,0-3.74-6.89c-2,3-3.55,5.54-5.24,8A53,53,0,0,1,247,24.21c-2.61,2.74-4.83,2.14-6.15-1.39C239.89,20.27,238.93,17.72,237.72,14.5Z"/><path d="M69.83,22.65a8.26,8.26,0,0,1,.07-2.73c.26-.7,1.11-1.64,1.7-1.65s1.55.94,1.72,1.62a19.34,19.34,0,0,1,.08,3.66c.12,3.3,1.51,5,4.71,5.49a17.18,17.18,0,0,0,13.94-3.92c3.52-2.94,3.31-6.88-.33-9.71-5.16-4-10.06-3.58-14.33,1.26-.35.4-.67,1-1.12,1.12-.72.23-1.93.47-2.21.13a2.53,2.53,0,0,1-.3-2.35A22.43,22.43,0,0,1,78.23,11c6.36-4.47,17.25-.6,19.54,6.86,1.22,4-.12,7.24-3.17,9.85a20.85,20.85,0,0,1-15.29,5.11C72.76,32.44,69.91,29.24,69.83,22.65Z"/><path d="M210,19.8c1.59,0,3.18,0,4.77,0a40.43,40.43,0,0,1,5.27-.11c.75.08,1.41,1,2.11,1.62a12.14,12.14,0,0,1-1.95,1.85,3.69,3.69,0,0,1-1.81.14c-3.65,0-7.33-.19-11,.1-.85.07-1.78,1.66-2.25,2.74a2.31,2.31,0,0,0,.93,2.08,22,22,0,0,0,5.57,1c2.05.1,4.12-.35,6.18-.28.68,0,1.33.95,2,1.47-.52.66-1,1.81-1.56,1.89-4.16.54-8.37,1.29-12.51-.18-4.58-1.62-5.77-4.58-3.37-8.75,2.66-4.62,5.79-9.07,10.25-11.93s9.53-4.72,14.4-6.86c.53-.24,1.51.55,2.29.86-.34.77-.46,1.91-1,2.24-4.52,2.57-9.17,4.89-13.68,7.47a48.75,48.75,0,0,0-5.14,3.88Z"/><path d="M103.45,35.32c-.6.07-1.32.37-1.8.15-.9-.43-2.23-1-2.37-1.78-.28-1.49,1-1.83,2.38-2a87.24,87.24,0,0,0,10.06-1.83,6.37,6.37,0,0,0,3.12-2.49c1.2-1.67.73-2.77-1.17-3.57-1-.41-2-.69-3-1.08a10.65,10.65,0,0,1-7.13-9.31C103,9,105.69,6.28,109.34,4.72a43.14,43.14,0,0,1,8.8-2.37,2.83,2.83,0,0,1,2.37,1.42c.43,1.41-.82,1.82-2.05,2.12A55.61,55.61,0,0,0,111,8c-2.17.86-4.24,2.31-3.91,5.06a7.26,7.26,0,0,0,4.54,6.16c1.27.53,2.62.88,3.88,1.43,3.39,1.48,4.45,4.33,3,7.72a8.43,8.43,0,0,1-5.2,4.88c-3.19,1-6.47,1.73-9.7,2.57Z"/><path d="M154.15,35.76c-.49-.61-1.61-1.41-1.53-2.07s1.16-1.63,2-1.93c1.85-.65,3.86-.84,5.71-1.49a9.29,9.29,0,0,0,3.25-2.07c2-1.91,1.74-3.11-.93-3.81a12.31,12.31,0,0,1-8.91-7.86c-1.4-3.61-.62-6.35,2.39-8.75,4.21-3.37,9.38-3.95,14.38-4.93.55-.11,1.33.91,2,1.41-.52.66-.91,1.7-1.58,1.93-2,.69-4.19.93-6.22,1.61a28.33,28.33,0,0,0-5.84,2.53c-2.41,1.45-2.66,2.85-1.5,5.46a7.78,7.78,0,0,0,5,4.67q.89.25,1.74.57c5.09,1.83,6,5.26,2.43,9.3C163.44,33.91,159,34.69,154.15,35.76Z"/><path d="M183.79,13.06l-5.85.82c-.84.12-1.66.28-2.5.38-1.26.14-2.4-.09-2.55-1.6s.92-1.91,2.18-2.09q11.7-1.7,23.4-3.44c2.8-.42,5.59-.94,8.39-1.36,1.24-.18,2.66-.28,2.89,1.4s-1.16,2-2.39,2.17c-5.75.92-11.49,1.88-17.25,2.66-2,.27-2.58.86-2.55,3,.09,5-.27,9.94-.51,14.9-.06,1.23-.26,2.7-1.93,2.61-1.85-.11-1.68-1.66-1.64-3,.17-4.67.36-9.33.51-14A23.28,23.28,0,0,0,183.79,13.06Z"/><path d="M140.51,22.8c-1.85.71-3.09,1.33-4.4,1.68-3,.81-5.72-.27-6.82-3.15a100.66,100.66,0,0,1-3.38-11.18c-.15-.59.89-1.49,1.38-2.25.8.63,2,1.11,2.32,1.92,1,2.81,1.48,5.78,2.39,8.61s2.44,3.45,4.86,1.82a30.16,30.16,0,0,0,4.69-4.63,31,31,0,0,1,3-3.41,3,3,0,0,1,2.67-.3,2.66,2.66,0,0,1,.8,2.32A18.75,18.75,0,0,1,146.51,19c-2.29,4.68-4.71,9.28-7.09,13.91-.58,1.12-1.29,2.38-2.78,1.66s-1-2.18-.42-3.38C137.55,28.56,138.91,25.92,140.51,22.8Z"/><path d="M58.05,29.16a26.75,26.75,0,0,1,4.57.08c.77.13,1.39,1.06,2.08,1.62-.59.59-1.13,1.62-1.79,1.7-5.43.68-10.87.75-16.07-1.27-4.78-1.86-6.72-6.46-5-11.26a15.51,15.51,0,0,1,8.7-9,77.63,77.63,0,0,1,9.82-3c1.41-.4,2.75-.1,2.91,1.62s-1.13,1.75-2.4,2.14c-3.69,1.13-7.51,2.12-10.87,3.93-2,1.06-3.48,3.4-4.6,5.49a4.38,4.38,0,0,0,2.69,6.65A84.77,84.77,0,0,0,58,29.72Z"/></g></g></svg>