<svg xmlns="http://www.w3.org/2000/svg" viewBox="0 0 242.54 47.32"><g id="Livello_2" data-name="Livello 2"><g id="Livello_1-2" data-name="Livello 1"><path d="M122.55,41.92c17.31,0,34.62.23,51.93-.06,21.36-.35,42.72-1.14,64.08-1.73a6.42,6.42,0,0,1,2.49.12,2.63,2.63,0,0,1,1.48,1.66c.08.44-.74,1.22-1.33,1.53a4.8,4.8,0,0,1-2,.23c-16.16.43-32.31,1.1-48.46,1.24-51.85.44-103.7.65-155.55,1-9.8.07-19.6.46-29.4.74a15.44,15.44,0,0,0-3.15.51C1.33,47.49,0,47.37,0,45.92a3.08,3.08,0,0,1,1.76-2.38,24.77,24.77,0,0,1,5.91-.61c23.28-.32,46.56-.66,69.84-.86,15-.13,30,0,45,0Z"/><path d="M13.63,25.24c.57,3.43,1,6.58,1.62,9.7.28,1.49.4,3-1.47,3.2s-2.09-1.23-2.29-2.72q-.72-5.7-1.7-11.34a4.43,4.43,0,0,0-1.36-2c-.58-.59-1.38-1-2-1.54-2.11-2.06-1.9-4.27.71-5.55A2.06,2.06,0,0,0,8.5,12.35c-.27-1.27-.39-2.57-.57-3.86C7.33,4.06,9.6.66,14.06.16A33.93,33.93,0,0,1,22.94.5a53.64,53.64,0,0,1,8,2.17c1.66.51,3.46,1.43,3.26,3.34a6.56,6.56,0,0,1-2.29,3.88,16,16,0,0,1-5,2.71C23.05,14,19.13,15,15.29,16.32A3.86,3.86,0,0,0,13,18.16c-.44,1.5.33,2.73,1.94,3.41,4.16,1.75,8.24,3.67,12.4,5.42,3,1.24,6,2.29,9,3.47,1.31.51,3.18.9,2.37,2.88-.72,1.76-2.31,1-3.59.51q-9.89-4-19.77-8C14.91,25.65,14.48,25.53,13.63,25.24ZM30.58,6.48c-5.32-2.05-10.16-3.29-15.29-2.9-1.86.14-3.67.85-3.73,3a53.61,53.61,0,0,0,.68,6.83C18.54,11.31,24.81,10.47,30.58,6.48Z"/><path d="M99.31,12.11c-2-.39-4.5-.87-7-1.33-1.39-.26-2.7-.69-2.32-2.44s1.67-1.47,3-1.24c8,1.41,16,2.79,23.93,4.23,2.49.45,4.83,1.34,5.67,4s-.22,5-2.25,6.78a73.52,73.52,0,0,1-7.42,5.75c-4,2.64-8.17,5.1-12.35,7.48-.73.41-1.91,0-2.89,0,.21-.93.37-1.87.65-2.77s.94-1.73,1-2.61C99.35,24.19,99.31,18.38,99.31,12.11Zm4.19,17.38c2.61-1.6,5.22-3,7.63-4.75A58.58,58.58,0,0,0,118.22,19c1.72-1.68,1.18-3.43-1.14-3.86-4.33-.81-8.71-1.34-13.58-2.07Z"/><path d="M133.24,15.65c-.87,3.41-1.45,6.09-2.24,8.7-.93,3.08-2,6.1-3.08,9.13-.48,1.37-1.42,2.39-3,1.67s-.94-2-.49-3.31c1.64-4.84,3.09-9.75,4.59-14.64.38-1.24.59-2.54,1-3.76,1-2.69,3.19-3.19,5.09-1,1.46,1.66,2.67,3.54,4,5.32.27.35.57.67,1.08,1.28.5-.9.92-1.58,1.26-2.29,1.2-2.48,2.29-5,3.57-7.45,1.45-2.75,3.84-3.56,6.27-1.66a14.68,14.68,0,0,1,4.81,5.9c1.81,5,2.91,10.26,4.24,15.43A13.26,13.26,0,0,1,161,33c-.06.85-.92,1.63-1.42,2.45-.66-.61-1.72-1.12-1.91-1.85-.64-2.44-.86-5-1.42-7.43-.72-3.13-1.52-6.25-2.47-9.31a16.47,16.47,0,0,0-2-4.1c-2-3-2.95-2.92-4.52.31-1.2,2.48-2.25,5-3.58,7.45-2,3.69-4.29,3.77-6.7.38Z"/><path d="M87.77,26.23a42.72,42.72,0,0,1,2.56,5.32c.29.86-.24,2-.4,3a21.07,21.07,0,0,1-2.72-1.39c-.39-.26-.5-.93-.75-1.4-3-5.79-1.13-5.07-7.71-3.32A108.5,108.5,0,0,0,68.33,32c-1,.36-1.64,1.42-2.6,1.77a9.31,9.31,0,0,1-2.9.1,8.66,8.66,0,0,1,.39-2.8c1.37-2.63,3.14-5,4.35-7.73,1.68-3.68,2.85-7.6,4.53-11.28.6-1.31,2-3.06,3.12-3.12,1.3-.07,3.08,1.21,3.94,2.42A99.47,99.47,0,0,1,85,21c.72,1.29,1.43,1.72,2.89,1.31s3.5-1.48,4.15.71-1.69,2.2-3.09,2.72C88.66,25.82,88.39,26,87.77,26.23ZM69.93,27.47l12.46-4-6.7-11C73.64,17.82,71.87,22.41,69.93,27.47Z"/><path d="M186.23,24.89c1.39,2.12,2.59,3.95,3.79,5.8.45.71.92,1.41,1.3,2.16.58,1.16,1,2.58-.48,3.12-.66.23-2.07-.62-2.63-1.36-1.73-2.33-3.24-4.83-4.78-7.3a2,2,0,0,0-2.65-1.09c-2.92.92-5.91,1.63-8.8,2.63a4.41,4.41,0,0,0-1.92,2c-.79,1.39-1.15,3.06-2.11,4.29-.49.64-1.88.58-2.87.84-.09-1-.58-2.16-.18-2.83.89-1.49,1.93-2.67.54-4.48-.26-.33.47-1.53.89-2.25.58-1,1.58-1.75,1.9-2.77.92-2.92,1.53-5.93,2.38-8.87.57-2,1.16-4.19,3.63-4.56s3.78,1.66,4.93,3.46c1.31,2.07,2.52,4.21,3.7,6.35a2.14,2.14,0,0,0,3,1.16,26.18,26.18,0,0,1,3.32-.9c1.34-.32,3-.88,3.42,1,.44,1.75-1.15,2.06-2.4,2.43S187.78,24.43,186.23,24.89ZM175.3,14.27l-.82,0c-.9,3.46-1.81,6.91-2.85,10.87l8.5-2.5C178.41,19.62,176.86,17,175.3,14.27Z"/><path d="M197.5,23c0-3.29,0-6.59,0-9.88s1-5,4.12-5.84A79.43,79.43,0,0,1,214.18,4.7a11.74,11.74,0,0,1,6.11,1.51c4,2,4.65,6.5,1.39,9.55a33.32,33.32,0,0,1-7.26,5.15,115.36,115.36,0,0,1-11.58,5c-1.4.54-1.93,1.22-1.83,2.67.11,1.68,0,3.37.09,5,0,1.37-.23,2.6-1.87,2.56s-1.8-1.29-1.79-2.64c0-3.52,0-7,0-10.57Zm3.58-.54c4.08-.78,13.18-5,16.32-7.77,1.09-1,2.47-2.56,2.36-3.74-.2-2.09-2.53-2.29-4.3-2.73a2.54,2.54,0,0,0-1.13,0c-3.81.79-7.63,1.53-11.38,2.5a3,3,0,0,0-1.79,2C201,15.9,201.08,19.1,201.08,22.47Z"/><path d="M50.8,29.77c-4.64-.31-8-1.75-10.56-5.21-1.79-2.45-.44-4.57.32-6.61,2.06-5.5,8.63-8.72,14.36-7.33a9.8,9.8,0,0,1,7.52,8.81,9.51,9.51,0,0,1-6.56,9.27A38.2,38.2,0,0,1,50.8,29.77Zm-1-3.56c1.79-.3,3.1-.4,4.34-.75,3.1-.86,5-3.46,4.66-6.23A6.33,6.33,0,0,0,52.68,14c-3.89-.31-6.23,1.95-8.37,4.72-1.78,2.3-1.59,4.3,1,5.79A27.47,27.47,0,0,0,49.75,26.21Z"/></g></g></svg>