<svg xmlns="http://www.w3.org/2000/svg" viewBox="0 0 307.83 61.85"><defs><style>.cls-1{fill:none;stroke:#000;stroke-miterlimit:10;stroke-width:2px;}</style></defs><g id="Livello_2" data-name="Livello 2"><g id="Livello_1-2" data-name="Livello 1"><path d="M232,20c1.19,6.48,2.28,12.22,3.27,18,.24,1.35,1.19,3.35-.85,3.8-2.28.51-2.11-1.78-2.39-3.2-.93-4.83-1.78-9.67-2.65-14.51-.33-1.83-.8-3.31-3.3-2.85-.61.11-1.43-1-2.16-1.51.59-.61,1.14-1.72,1.76-1.76,8.43-.57,16.88-1.11,25.32-1.36a10.79,10.79,0,0,1,5.28,1.72A7.53,7.53,0,0,1,259,29.37a26,26,0,0,1-5.13,5.74A71.48,71.48,0,0,1,228.57,48.2a2.83,2.83,0,0,1-2.54-.71c-.72-1.42.54-2,1.71-2.44,7.39-2.49,14.59-5.38,20.84-10.13a43,43,0,0,0,6.91-6.29c2.77-3.29,1.58-6.8-2.49-8.31a5.91,5.91,0,0,0-2-.49C244.78,19.85,238.61,19.92,232,20Z"/><path d="M173.93,21.19a6.36,6.36,0,0,0-.13,1.11c1.16,6.7,1.16,6.69,8,6.12,1.17-.1,2.35-.17,3.52-.22s2.87-.25,2.78,1.51c0,.63-1.55,1.52-2.5,1.7a60.3,60.3,0,0,1-6.32.56c-.85.07-1.69.19-2.9.33.94,3.34,1.87,6.44,2.68,9.57.36,1.39,1.62,3.35-.65,4-2,.55-2.08-1.65-2.5-3-.89-2.83-1.74-5.67-2.48-8.55-.36-1.37-1-2-2.47-1.79a6.63,6.63,0,0,1-3-.21c-.69-.28-1.11-1.23-1.64-1.89.69-.48,1.33-1.23,2.08-1.37a16.68,16.68,0,0,1,3.62.22l-1.68-7.07a23.88,23.88,0,0,1-4.49.7c-.79,0-1.56-.88-2.34-1.36.61-.67,1.14-1.84,1.83-1.94,9.86-1.42,19.73-2.7,29.6-4a3.24,3.24,0,0,1,1.63,0A10.59,10.59,0,0,1,198.35,17c-.53.58-1,1.55-1.59,1.68-1.92.38-3.9.42-5.85.63Q182.41,20.21,173.93,21.19Z"/><path d="M64.54,31.78c2.15,4.28,2,6.32-1.57,8.88a36.26,36.26,0,0,1-8.67,4.45A7.08,7.08,0,0,1,46.16,43c-2.3-2.6-2.11-5.59-.77-8.56,3.18-7,8.34-12.38,14.57-16.8,1.22-.85,2.51-1.6,3.78-2.37s2.47-.83,2.88.63a2.91,2.91,0,0,1-1.29,2.44A38.26,38.26,0,0,0,48.49,35.72c-.81,1.68-1.17,3.49.19,5.07a4.23,4.23,0,0,0,5.18,1,48.23,48.23,0,0,0,7.52-4.15c1.77-1.21,1.5-2.35,0-3.83a18.33,18.33,0,0,1-2.14-3c1.14-.7,2.19-1.71,3.43-2a35.43,35.43,0,0,1,6.73-1c.71-.05,1.48.74,2.23,1.15-.6.67-1.08,1.72-1.82,2A37.32,37.32,0,0,1,64.54,31.78Z"/><path d="M94.1,28.9c-.15,8.8-9.93,13.57-16.72,11-4.24-1.6-5.67-7-3.33-11.32.52-1,.48-2.24.89-3.29.28-.74.76-1.7,1.39-2,2.82-1.11,5.65-2.44,8.6-2.86C90.25,19.7,94.12,23.51,94.1,28.9ZM79,25.37l.51.78a24.76,24.76,0,0,1-2.05,3.42c-2.2,2.59-1.32,6.63,1.74,7.48,4.63,1.28,10.27-2,11.39-6.69,1-4.11-1.8-7.25-6-6.55A54.88,54.88,0,0,0,79,25.37Z"/><path d="M136.77,42.49c-4.61,0-8.33-2.52-9.67-6.16-1.23-3.35-.11-6.8,3.37-9.38.92-.68,2.36-.67,3.57-1a7.08,7.08,0,0,1,1.5-.28c3.32-.12,6.78-.84,9.93-.15,5.39,1.19,6.93,5.88,3.91,10.49S141.51,42.15,136.77,42.49Zm0-3a52.87,52.87,0,0,0,6.72-2.45c2.85-1.46,4.42-4.33,3.86-6.14s-3.21-2.89-6.52-2.71a46.62,46.62,0,0,1-4.68.39,6,6,0,0,0-5.92,3.84c-.74,1.87.14,4.2,2.38,5.55A23.9,23.9,0,0,0,136.78,39.52Z"/><path d="M113.13,23.77a24.86,24.86,0,0,1-4,1.14,7.93,7.93,0,0,1-2.6-.62c.45-.85.71-2.2,1.39-2.46a41.08,41.08,0,0,1,7-2c5.68-1.11,11.4-2.08,17.11-3.1a11.22,11.22,0,0,1,1.16-.19c1.19-.1,2.67-.27,2.68,1.34,0,.63-1.27,1.67-2.12,1.86-4.9,1.06-9.83,2-14.77,2.81-1.65.28-2.39.83-2.48,2.64-.2,4.2-.59,8.4-1.12,12.58-.12.9-1.15,2.4-1.78,2.41-1.73,0-1.59-1.57-1.49-2.82.3-3.81.66-7.61,1-11.42C113.17,25.37,113.13,24.77,113.13,23.77Z"/><path d="M217.05,30.16c-.46,5.44-3.22,9.49-7.7,10.74a10,10,0,0,1-11.5-5.21,28.94,28.94,0,0,1-2.35-8c-.13-.68,1-1.6,1.51-2.41.6.75,1.64,1.46,1.71,2.26a13.17,13.17,0,0,0,2.89,7.75,6.51,6.51,0,0,0,6.5,2.39c2.6-.5,4.46-2.24,4.64-4.68.23-2.86-.4-5.79-.75-8.69-.08-.67-.71-1.29-.73-2a10.55,10.55,0,0,1,.52-2.48c.82.38,2.15.57,2.38,1.18C215.29,24.06,216.12,27.13,217.05,30.16Z"/><path d="M190.67,45c-.93-1.3-1.83-2-1.76-2.6s1-1.23,1.59-1.83c.57.53,1.54,1,1.59,1.6S191.42,43.63,190.67,45Z"/><path d="M257.66,41c.84,1.29,1.64,2,1.62,2.65s-1.08,1.57-1.54,1.5A2.5,2.5,0,0,1,256,43.54C255.87,43,256.78,42.21,257.66,41Z"/><path d="M220.75,43.62c-.89-1.32-1.77-2-1.69-2.65s1.07-1.19,1.66-1.77c.55.55,1.5,1.07,1.54,1.65S221.55,42.25,220.75,43.62Z"/><path class="cls-1" d="M302.5,36.85c-.95,17.82-12.38,24.33-16.6,23.64C284.42,58.35,21.54,64,27.14,57.94,9.48,61.09,5,48.6,5.34,38.3c-7.28.09-3.2-12.47-3.2-12.81C2.92,15.2,16.32,5.06,19.52,6.28c-.93-6.58,259.18-1,262.86-5.22,14.26,1.72,23.83,9.81,24.45,18.83C306.09,24.47,299.33,45.11,302.5,36.85Z"/></g></g></svg>