<svg xmlns="http://www.w3.org/2000/svg" viewBox="0 0 302.33 64.85"><defs><style>.cls-1{fill:none;stroke:#000;stroke-miterlimit:10;stroke-width:2px;}</style></defs><g id="Livello_2" data-name="Livello 2"><g id="Livello_1-2" data-name="Livello 1"><path class="cls-1" d="M301.08,43.35c-.88,13.87-8.29,22.32-20,20-.81-4.94-259-1.79-260,0-10.62,3.2-19.81-9.75-20-20,.64,1.33,1-17.19,0-20-.46-10.21,8.7-25.4,20-20-.59-4.79,260.37-.92,260,0,11.1,4.41,19.53,14.54,20,20C300.44,17.47,301.88,49.11,301.08,43.35Z"/><path d="M268.18,36.09c.83-4.35,1.58-8.42,2.38-12.49a22.31,22.31,0,0,1,1-3.8c1.12-2.89,3.84-3.33,5.4-.68a66.27,66.27,0,0,1,5,10.39c1.62,4.33,2.75,8.84,4.08,13.27a3.19,3.19,0,0,1,.26,1.57,8.62,8.62,0,0,1-1.07,1.85c-.59-.37-1.41-.62-1.72-1.16a16.3,16.3,0,0,1-.94-2.84q-3.35-9.36-6.74-18.69a13.61,13.61,0,0,0-1.29-2.13,17.16,17.16,0,0,0-.7,2.14c-.8,4.24-1.55,8.5-2.35,12.74a16.53,16.53,0,0,1-.95,3.8c-.37.81-1.27,1.84-2,1.89s-1.73-.89-2.16-1.65c-1.13-2-2-4.17-3-6.25-.71-1.45-1.5-2.85-2.58-4.88a20,20,0,0,0-.14,2c.21,4.31.44,8.62.66,12.93.07,1.29.08,2.75-1.59,2.81S258,45.56,258,44.26c-.22-5.16-.52-10.31-.76-15.47-.08-1.82-.63-4,1.61-4.83s3.27,1.33,4.19,2.83C264.82,29.72,266.38,32.8,268.18,36.09Z"/><path d="M207.12,40.68a22.55,22.55,0,0,1-3.84-1.87c-1-.76-2.41-1.86-2.48-2.89a4.18,4.18,0,0,1,2-3.23,69.43,69.43,0,0,1,9-3.56c.53-.18,1.37.55,2.07.86-.38.83-.55,2.07-1.18,2.39a57.48,57.48,0,0,1-5.83,2.23,18.75,18.75,0,0,0-1.84.93c1.26.68,2.3,1.15,3.26,1.76a4.18,4.18,0,0,1,2.13,4.52,3.61,3.61,0,0,1-3.4,3c-3.43.37-7,1.09-10.31.58-7.08-1.09-9.76-6.54-6.85-13.06,3.13-7,8.81-11.57,15.32-15.23,1.08-.6,2.17-.66,2.72.64s.1,2.26-1.32,2.94c-6.17,2.92-11.14,7.16-14,13.51-1.6,3.55-.81,5.39,2.72,7.06C198.17,42.61,203.28,42.43,207.12,40.68Z"/><path d="M220.1,43.47a7.75,7.75,0,0,1,0,2.55,7.61,7.61,0,0,1-1.56,1.72c-.55-.55-1.56-1.09-1.58-1.65,0-2.24,0-4.41-1.37-6.39a2.11,2.11,0,0,1,.09-2c1.85-2.54,1.46-5.45,1.48-8.26,0-3.07,1.32-5.36,4.06-6.39a79.35,79.35,0,0,1,10.61-3c1-.21,2.76.35,3.14,1.09a4.13,4.13,0,0,1-.37,3.56,44,44,0,0,1-12.29,11.76,14.32,14.32,0,0,0-2.2,2.14,16,16,0,0,0,2.24,2c3.06,1.81,6.17,3.52,9.26,5.26,1.18.66,2.12,1.54,1.37,3s-2,.71-3,.15C226.79,47.2,223.64,45.43,220.1,43.47Zm.3-10.17c4.26-2.3,7.27-5.65,10.45-9.22C223.38,24.05,219.88,27.08,220.4,33.3Z"/><path d="M36.55,23.34C37.76,26.68,39,29.82,40,33a18.36,18.36,0,0,1,1,4.73,8.27,8.27,0,0,1-5.41,8.34C30,48.5,24.39,47.21,18.93,45.33c-.58-.2-.8-1.44-1.18-2.19.81-.35,1.67-1.08,2.42-1,2.67.34,5.28,1.27,7.94,1.4a18.06,18.06,0,0,0,6.53-1,4.37,4.37,0,0,0,3.09-5.68c-1.22-4-2.87-8-4.43-11.88a3.6,3.6,0,0,0-3.69-2.25c-3.55,0-7.09-.18-10.64-.18-1.37,0-2.61-.1-2.63-1.78s1.18-1.9,2.57-1.84c6.68.25,13.37.46,20.05.7a3.63,3.63,0,0,1,1.81.25,9.88,9.88,0,0,1,1.67,1.85c-.63.55-1.19,1.41-1.91,1.56A20.86,20.86,0,0,1,36.55,23.34Z"/><path d="M255.64,45.88c-.36.43-.72,1.23-1.29,1.42a1.93,1.93,0,0,1-1.64-.85,24.83,24.83,0,0,1-1.78-4c-.42-1.14-1-1.56-2.26-1.19-1.77.51-3.59.88-5.41,1.22-2.08.39-3.8,1-4,3.58-.05.58-1.23,1.05-1.89,1.58-.47-.7-.95-1.4-1.41-2.11,0-.05,0-.17,0-.23-1.39-2.44-1.83-4.57,1.58-5.75.34-.11.39-1.11.53-1.71,1.09-4.42,2.11-8.85,3.32-13.24.27-1,1.22-2.54,1.83-2.52A3.93,3.93,0,0,1,246,23.9c1.89,3.53,3.45,7.24,5.24,10.82a12.45,12.45,0,0,0,1.86,2.08c.41.5,1.18,1.29,1,1.58-1.1,2.27.4,4,1,5.86C255.32,44.67,255.43,45.12,255.64,45.88ZM244.43,27.64l-.65.12c-.91,3.69-1.82,7.37-2.82,11.48l7.94-1.77Z"/><path d="M81.91,29.91c-.14,2.49-.34,5-.4,7.49,0,1.21.1,2.55-1.44,2.68-1.71.15-2-1.29-1.87-2.56.4-3.91.86-7.82,1.47-11.7.12-.75,1-1.87,1.56-1.95A3,3,0,0,1,83.69,25a66.55,66.55,0,0,1,3.46,7c1.32,3,2.51,6.05,3.75,9.08l.76,0c.62-2.73,1.39-5.44,1.85-8.2.67-4,1-8.11,1.73-12.14.16-.92,1.12-1.71,1.71-2.56.45.92,1.39,1.92,1.27,2.77-1,6.63-2,13.26-3.29,19.84-.37,2-.88,4.44-3.43,4.69s-3.07-2.22-3.86-4c-1.34-3-2.49-6-3.73-9-.38-.91-.77-1.81-1.16-2.72Z"/><path d="M172.65,32.46l6.69-1.23c1.22-.23,2.63-.24,2.6,1.3a3.23,3.23,0,0,1-2,2.21c-2,.64-4.1.72-6.09,1.31A2.68,2.68,0,0,0,172.21,38c0,.72.94,2,1.57,2a59.83,59.83,0,0,0,7.58.17c1.29,0,2.69-.24,2.9,1.44s-1.17,2.12-2.59,2.15a50.17,50.17,0,0,1-8,0c-3.49-.51-4.85-2.51-4.7-6,.19-4.62.45-9.24.71-13.86.09-1.43.65-2.33,2.38-2a4.2,4.2,0,0,0,2.14-.31c2.75-1,5.45-2.16,8.19-3.21,1.11-.43,2.38-.82,2.93.7s-.52,2.22-1.78,2.71c-2.52,1-5,2-7.56,2.92-2.23.8-3.46,2.12-3.13,4.65A19,19,0,0,1,172.65,32.46Z"/><path d="M56.56,42.61c-6.55-.11-11.27-4.38-11.06-10s5.93-11.22,11.58-11.18c5,0,9.18,5.57,9.06,11.83C66,38.92,62.16,42.71,56.56,42.61Zm.06-3.68c4,0,6.34-2.18,6.33-6,0-4.08-2.73-7.7-5.81-7.77C53,25.06,48.77,29,48.77,32.85,48.76,36.47,51.91,38.9,56.62,38.93Z"/><path d="M134.92,36a23.42,23.42,0,0,1,4.21-.62c.73,0,1.45.76,2.17,1.19-.5.75-.83,1.84-1.52,2.17-1.15.54-2.61.41-3.79.92-.6.26-1,1.26-1.2,2,0,.18,1,1,1.57,1,2.7-.08,5.38-.36,8.07-.54,1.27-.09,2.59.18,2.37,1.7a3,3,0,0,1-2.1,1.79c-2.89.44-5.82.61-8.74.82s-4.35-1.15-4.45-4c-.14-4-.28-8-.2-12a3.41,3.41,0,0,1,1.54-2.5c3.31-1.65,6.74-3,10.13-4.52,1.13-.5,2.46-1.22,3.17.41s-.58,2.33-1.84,2.91c-2,.92-4.06,1.86-6.1,2.77C134.28,31.13,134.27,31.13,134.92,36Z"/><path d="M121.49,32.76c0,2.7.11,5.41-.06,8.1-.05.8-.9,1.55-1.38,2.33-.57-.78-1.6-1.53-1.63-2.32q-.23-7.63,0-15.29c0-1.95-.57-2.64-2.5-2.35-1.22.18-2.47.1-3.7.17-1.43.08-2.43-.63-2.17-2a3,3,0,0,1,2.06-1.85c7.45-.66,14.91-1.15,22.37-1.71,1.34-.1,2.88-.39,3.08,1.46s-1.4,2-2.83,2.18c-3.76.39-7.52.9-11.28,1.19-1.55.12-2,.78-1.91,2.18.07,2.63,0,5.25,0,7.88Z"/><path d="M162.83,43.54a28.32,28.32,0,0,1,4.61.08c.69.11,1.25,1,1.87,1.59-.57.6-1.12,1.72-1.71,1.74a99.89,99.89,0,0,1-11.74-.21c-2.91-.29-4.25-2.26-4.06-5.23.43-6.93,1-13.84,1.49-20.75.09-1.28.37-2.77,2-2.53s1.39,1.77,1.26,3.14c-.59,6.67-1.11,13.35-1.51,20,0,.57,1,1.63,1.59,1.74a60.57,60.57,0,0,0,6.19.57Z"/><path d="M72.41,30.16c0,2.16.13,4.33-.06,6.47-.08.82-.9,1.56-1.38,2.33-.55-.78-1.53-1.54-1.58-2.36-.31-4.54-.45-9.1-.49-13.65,0-.7.84-1.42,1.29-2.12.63.64,1.73,1.24,1.79,1.93.22,2.45.09,4.93.09,7.4Z"/></g></g></svg>