<svg xmlns="http://www.w3.org/2000/svg" viewBox="0 0 447.8 48.74"><g id="Livello_2" data-name="Livello 2"><g id="Livello_1-2" data-name="Livello 1"><path d="M262.83,28c-1.09,1.6-2,3-3,4.35a29.44,29.44,0,0,1-9.76,9c-5.61,3.18-9.7,2.43-13.72-2.53a14.48,14.48,0,0,1-2.19-3.52,108.67,108.67,0,0,1-7.39-26.71,12.81,12.81,0,0,1-.14-1.52c0-1.93,1.08-3.25,2.63-3.08,1.81.19,2.14,1.43,2.4,3.07.81,5,1.68,10.05,2.91,15a62.89,62.89,0,0,0,3.65,10.54c3.05,6.81,5.7,7.33,11.42,3.43,4.24-2.9,7-7,9.39-11.41a2.94,2.94,0,0,0-.19-2.36c-2.36-4.53-4.83-9-7.28-13.48a23.6,23.6,0,0,0-1.54-2.38c-1-1.36-1.22-2.7.21-3.86,1.22-1,2.87-.57,3.87,1.13,1.22,2.07,2.24,4.26,3.37,6.39,1.38,2.62,2.77,5.23,4.46,8.41.63-1.52,1-2.37,1.33-3.23,1-2.67,1.93-5.36,2.95-8,.53-1.36,1.5-2.28,3.07-1.75s1.77,1.8,1.37,3.23c-.16.56-.35,1.11-.55,1.66-1.42,3.75-2.91,7.48-4.23,11.27a3.3,3.3,0,0,0,.19,2.57c3,4.34,6,8.65,9.17,12.85s5.3,4.2,9.07.74a23.32,23.32,0,0,0,7.25-15.1c.59-5.38,0-10.88,0-16.33,0-.72-.29-1.57,0-2.14.39-.75,1.17-1.68,1.88-1.77s1.57.7,2.3,1.21c.24.17.3.65.36,1,1.49,9.74,1.58,19.33-2.73,28.53a24.36,24.36,0,0,1-7.2,9.25c-5,3.82-9.68,3.46-13.74-1.37-2.72-3.24-5.05-6.8-7.55-10.23C264.25,29.94,263.62,29.07,262.83,28Z"/><path d="M37.07,25.18c1.29-2.23,2.6-4.38,3.79-6.59,1.53-2.83,3-5.71,4.44-8.56.76-1.43,1.85-2.45,3.53-1.54s1.4,2.31.68,3.63C46.44,17.76,43.38,23.4,40.16,29a2.54,2.54,0,0,0,.1,3.31A11.75,11.75,0,0,0,53.9,35.85C59.72,33.35,64,29.39,66,23.31c1.48-4.57,2.63-9.24,3.92-13.87.2-.7.16-1.63.62-2.06A4,4,0,0,1,73.16,6c.65.07,1.2,1.34,1.73,2.13.13.19,0,.57,0,.85C73.44,16,72,22.87,68.54,29.2S59.69,39.23,53.09,41c-5.73,1.55-11-.26-15.36-4.43-.52-.5-1-1.05-1.51-1.57,0-.05-.14,0-.59-.1-1.78,1.79-3.6,3.89-5.7,5.68a40.23,40.23,0,0,1-6.43,4.56A7.56,7.56,0,0,1,13.17,42.9a17.64,17.64,0,0,1-2.6-5C7.44,27.7,4.45,17.48,1.41,7.28,1,6,.66,4.77.23,3.54-.28,2.08,0,.89,1.47.25A2.31,2.31,0,0,1,4.73,1.6,39.46,39.46,0,0,1,6,5.78C9,15.85,11.74,26,15,36c2.14,6.63,4.24,7.12,9.73,2.75,2.67-2.14,5-4.7,7.51-7,1.07-1,1.08-2,.54-3.31A61.28,61.28,0,0,1,28.24,8.63a8.39,8.39,0,0,1,.08-1.74c.27-1.49,1.14-2.43,2.73-2.24s2.28,1.4,2.17,3c-.42,6,1.44,11.5,3.27,17C36.53,24.79,36.69,24.86,37.07,25.18Z"/><path d="M360.63,45.46a16.58,16.58,0,0,1-13-5c-5.55-5.41-6.37-12.94-2-19.34a24.5,24.5,0,0,1,14-10c2.4-.68,4.77-1.49,7.19-2.09,8-2,14.85.4,20.64,5.85,4.43,4.17,5.11,11,2,16.83a23.14,23.14,0,0,1-10.89,9.86A39.74,39.74,0,0,1,360.63,45.46Zm.17-4.71a36.24,36.24,0,0,0,15.08-3.12A19.17,19.17,0,0,0,385,30c2.51-4.26,2.1-9.12-1.18-12-4.51-4-9.75-5.86-15.84-4.31-2.62.67-5.25,1.38-7.81,2.26a20.4,20.4,0,0,0-10.42,7.68c-3.14,4.51-2.72,9.39,1.09,13.33A12.22,12.22,0,0,0,360.8,40.75Z"/><path d="M399.5,6.08c.64,4.16,1.2,7.9,1.8,11.63.33,2,.81,4,1,6,.17,1.53.66,2.13,2.36,1.92,5.9-.73,11.83-1.29,17.74-2,2.92-.32,4.28.2,4.47,1.85s-.94,2.52-3.9,2.85c-5.76.64-11.53,1.3-17.3,1.82-1.78.16-2.23.8-1.88,2.49.86,4.14,1.6,8.3,2.35,12.47.3,1.64.11,3.23-1.93,3.51-1.75.24-2.43-1-2.72-2.53-.81-4.3-1.66-8.59-2.37-12.91-.26-1.55-.76-2.2-2.5-2.21a4.81,4.81,0,0,1-3-1.64,2.39,2.39,0,0,1,.46-2.28,15.13,15.13,0,0,1,3.74-1.34c-.21-1.27-.48-2.81-.73-4.36C396.41,17,395.62,12.52,395,8c-.21-1.62-.87-2.16-2.4-2a18.62,18.62,0,0,1-2,.08c-2,0-3.33-.91-3.2-2.45.17-1.95,1.52-2.48,3.28-2.41,1.1.05,2.2.06,3.3.06h37.25c1.58,0,3.12.38,3.16,2.27s-1.53,2.43-3.21,2.43q-14.22,0-28.43,0Z"/><path d="M163.11,23.63c-.06-1-.07-1.82-.16-2.59-.45-3.69-1-7.38-1.34-11.08-.14-1.33-.6-2-2-1.89A46.13,46.13,0,0,1,154.73,8c-1.39-.09-2.43-.77-2.44-2.29s1-2.17,2.41-2.33a12.94,12.94,0,0,1,1.76-.05q23.6.18,47.17.38c.59,0,1.34-.15,1.72.14.84.64,2.08,1.54,2.05,2.3s-1.26,1.7-2.17,2.17a6,6,0,0,1-2.6.11l-33.51-.35h-3c.63,5.06,1.22,9.79,1.83,14.79,1.09-.09,2-.15,2.92-.25,3.79-.4,7.58-.86,11.39-1.2,3-.27,4.27.38,4.42,2s-1.12,2.43-4.23,2.73c-3.95.37-7.88.92-11.83,1.25-1.76.15-2.18.9-2,2.54.4,4.13.67,8.29,1,12.43,0,.65.31,1.44,0,1.94-.49.93-1.14,2.14-2,2.42-1.4.45-2.36-.66-2.54-2-.33-2.46-.51-4.93-.72-7.4s-.39-4.8-.5-7.21c-.05-1.3-.57-1.86-1.9-1.68-.58.07-1.35.25-1.73,0-.85-.62-2-1.39-2.16-2.29-.33-1.39.78-2.27,2.2-2.44A25.58,25.58,0,0,1,163.11,23.63Z"/><path d="M308.24,13.84c-.87-2.31.47-3.6,2.32-4.7a30.31,30.31,0,0,1,12.6-4.3c6.7-.65,12.35,1.45,15.86,7.27s3.43,12.28-.13,18.3A22.72,22.72,0,0,1,316,41.12c-7-1.09-11.43-5.4-13.59-11.9C300.53,23.65,302.86,17.93,308.24,13.84Zm28.44,7.3c0-7.44-4.87-12-12.33-11.63a23.45,23.45,0,0,0-12.28,4.35c-.4.28-.91,1-.82,1.3.45,1.64-.38,2.56-1.5,3.55A9,9,0,0,0,308,30.44a12.33,12.33,0,0,0,9.81,6.19C327.34,37.52,336.74,29.86,336.68,21.14Z"/><path d="M90.5,45c-6.57-.33-12.33-4-16.12-10.45-2.51-4.29-2.11-8.83.4-13.14a23.42,23.42,0,0,1,11.15-9.55c.53-.24,1.22-.59,1.67-.43,1,.35,2.43.83,2.66,1.57s-.61,2.06-1.36,2.73-2.24.84-3.11,1.56a40.75,40.75,0,0,0-6.51,6C76.57,26.86,77,31,79.93,34.39a15.85,15.85,0,0,0,18.72,4.53A19.14,19.14,0,0,0,108,31a9.91,9.91,0,0,0-6.77-14.75c-2-.34-3.94-.38-5.92-.56-1.53-.13-2.85-.65-2.8-2.42S93.94,11,95.47,11c4.91,0,9.68.47,13.62,3.94a14.37,14.37,0,0,1,2.67,19C107,41.08,100.28,44.79,90.5,45Z"/><path d="M132.49,41.41c-1.53-.16-3.08-.22-4.58-.51a11.3,11.3,0,0,1-9.35-11.14,19.05,19.05,0,0,1,6.67-15.11c1.49-1.28,3.32-2.17,4.79-3.46,2.67-2.35,6-2.18,9-2.08a14.76,14.76,0,0,1,11.83,22.83C146.56,38.39,140.23,41.27,132.49,41.41Zm.1-4.92c6.21.13,11.14-2.3,14.52-7.49,2.43-3.73,2.15-7.65-.53-10.72-2.42-2.79-5.7-4.11-9.13-4.94-.92-.23-2.16.53-3.17,1-5.64,2.69-9.84,6.54-10.85,13.07-.79,5.12,1.8,8.58,7,9.06C131.12,36.55,131.86,36.49,132.59,36.49Z"/><path d="M445.18,40.19a2.64,2.64,0,0,1,2.61,2.89c-.18,2.8-1.46,4.56-3.23,4.46s-3.69-2.23-3.58-3.83S443.39,40.13,445.18,40.19Z"/></g></g></svg>