<svg xmlns="http://www.w3.org/2000/svg" viewBox="0 0 131.96 63.33"><defs><style>.cls-1{fill:none;stroke:#000;stroke-miterlimit:10;stroke-width:2px;}</style></defs><g id="Livello_2" data-name="Livello 2"><g id="Livello_1-2" data-name="Livello 1"><path class="cls-1" d="M130.1,42c4.62,7-10.57,23.06-20,20-4.68-4.83-86-3-89,0C13.93,58,4.6,49.33,1.1,42c2.19-4.85,1.32-24.79,0-20C.5,9,13.42.62,21.1,2c-.11,0,92.42-2.16,89,0,8.91,1.63,15.82,12.31,20,20C127.65,25,131,46.32,130.1,42Z"/><path d="M82.56,30.87c-2.71,3-5.31,6.15-8.17,9-1,1-3,2.1-3.92,1.71-1.14-.48-2.15-2.4-2.35-3.82-.64-4.65-1-9.34-1.21-14,0-.86,1-1.78,1.52-2.67C69,22,69.9,22.8,70,23.73c.5,4.56.79,9.14,1.15,13.71l.64.27c1.41-1.5,2.86-3,4.2-4.5,1.64-1.89,3.05-4,4.81-5.76.82-.83,2.44-1.69,3.33-1.4S85.85,28,86,29.14c.38,2.9.37,5.86.51,8.79l.75.33c1.79-3.2,3.7-6.34,5.32-9.63.89-1.8,1.22-3.88,2-5.75.27-.65,1.1-1.08,1.68-1.6a7.1,7.1,0,0,1,1.26,2,3.72,3.72,0,0,1-.32,2.29c-2.41,4.89-4.82,9.79-7.42,14.58-.81,1.5-2.24,2.86-4.25,2.19s-2.26-2.48-2.32-4.24c-.09-2.39,0-4.79,0-7.18Z"/><path d="M32.52,38c-3.83.37-7.41.66-11,1.12-.55.07-1.2.86-1.45,1.47-.46,1.15-.51,2.48-1,3.59-.29.62-1.2.94-1.83,1.4-.39-.7-1-1.39-1.08-2.11a12.53,12.53,0,0,1,.57-3.15c-.46-.19-1.09-.26-1.36-.61a3.66,3.66,0,0,1-1-2.12c0-.56.93-1.54,1.43-1.53,2.23,0,2.46-1.49,2.78-3.06.69-3.29,1.29-6.61,2.15-9.86.22-.81,1.27-1.4,1.93-2.09.45.88,1.36,1.84,1.24,2.64-.45,3-1.24,6-1.89,9-.17.75-.31,1.5-.58,2.77,3.64-.42,7-.75,10.24-1.24.37-.06.85-1,.84-1.61,0-2.82-.13-5.64-.35-8.44-.1-1.32-.35-2.79,1.27-3,1.88-.29,2,1.37,2.06,2.71.06,3.19,0,6.39,0,9.8a6.92,6.92,0,0,1,2.22,0,13.13,13.13,0,0,1,2.1,1.45c-.56.72-1.1,2-1.68,2.06-2.34.08-2.31,1.43-2.3,3.14,0,1.43.7,3.75-1.48,3.82s-1.52-2.27-1.7-3.7C32.55,39.67,32.57,39,32.52,38Z"/><path d="M44.69,28.66c.36-5.13,8.62-9.19,13.19-6.27a15.09,15.09,0,0,1,7.2,11.3,7.5,7.5,0,0,1-2.88,7.08,13,13,0,0,1-13.72,2c-4.52-1.82-6.54-5.67-7.06-10.31-.34-3.05.59-4,3.32-3.82a24.21,24.21,0,0,0,.15,4.83,7.67,7.67,0,0,0,6,6.25c3.71.82,7.28.4,10-2.53a5,5,0,0,0,.92-3.86c-1.5-8.14-7.63-10.22-13.85-4.83a1.29,1.29,0,0,0-.17.16A1.82,1.82,0,0,1,44.69,28.66Z"/><path d="M112.69,18.61c1.69.34,4.33.74,6.89,1.43a4.09,4.09,0,0,1,2.9,5.71,23.28,23.28,0,0,1-5,6.86,38.47,38.47,0,0,1-7.29,4.69,14.41,14.41,0,0,0-6.25,6.46c-.37.78-1.53,1.18-2.32,1.76-.21-1-.83-2.2-.54-3.07a14.16,14.16,0,0,1,6.31-7.62c2.8-1.71,5.68-3.33,8.32-5.27a17.11,17.11,0,0,0,3.48-4c.68-1,.32-1.82-.94-2.06a62.24,62.24,0,0,0-6.47-1.17c-3.69-.3-5.88,2.53-5.24,6.2.14.83-.63,1.82-1,2.73-.76-.61-2-1.06-2.23-1.83C101.56,24.31,106.24,18.38,112.69,18.61Z"/><path d="M96.58,54.17c-.38-.74-1.13-1.53-1-2.2s1-1.23,1.62-1.84c.52.67,1.42,1.3,1.47,2s-.79,1.39-1.23,2.09Z"/></g></g></svg>