<svg xmlns="http://www.w3.org/2000/svg" viewBox="0 0 306.17 65.26"><defs><style>.cls-1{fill:none;stroke:#b2b2b2;stroke-linecap:round;stroke-linejoin:round;stroke-width:0.5px;}</style></defs><g id="Livello_2" data-name="Livello 2"><g id="Livello_1-2" data-name="Livello 1"><path class="cls-1" d="M13.7,2.51c.05.09,3.32-2,3.37-1.94.15.27-8.64,11-8.43,11.41.3.53,19.79-12,20.06-11.59.4.7-20.92,16.73-20.59,17.28C8.56,18.47,37.39-.12,37.77.54c.58,1-35.71,25.67-35.23,26.5C3.24,28.26,46.72-.19,47.47,1.1S-.44,32.84.32,34.15C1.26,35.78,56.69-.63,57.65,1,58.38,2.31-.69,38.53.26,40.18,1.4,42.16,65.52.55,66.37,2,67.31,3.65,2.52,42.86,3.43,44.43S76.09.35,77,2C78.18,4,2.1,48.11,3.06,49.76,4.24,51.8,84.12.3,85.27,2.29,86.25,4,3.75,52.77,4.76,54.52,6.25,57.1,93.52.22,94.85,2.51,96.36,5.13,7.58,55.25,9.11,57.89,10.35,60,103.79.65,104.9,2.58c1.24,2.15-92.18,56.34-91,58.4C15.48,63.7,113.75-.65,115.48,2.34c1.23,2.14-95.69,58.27-94.22,60.8C22.9,66,124.18.13,125.73,2.82,127.16,5.3,29.2,61.54,30.8,64.31c1.69,2.93,106-64.84,107.6-62.12,1.36,2.35-97.73,60.25-96.48,62.43S147.57.37,149,2.81c1.58,2.74-99,59.76-97.69,62.07C52.9,67.67,158.35.05,159.66,2.32c1.21,2.09-100.3,60-99,62.32S166.49.55,167.79,2.8,67.63,62.49,69,64.92,175.53.31,176.88,2.66c1.68,2.9-100.42,59.91-99.14,62.12C79.16,67.24,184.53-.88,186.27,2.12c1.56,2.71-98.46,59.33-96.93,62S194.49-.26,196.08,2.48s-99.16,60.4-98,62.42C99.88,68,204.74.05,206.16,2.51c1.15,2-98.51,59.43-96.82,62.36,1.38,2.39,106.59-65,108.08-62.41C219,5.23,118.09,62,119.61,64.65,121,67.13,226.48-1.28,228.31,1.89c1.27,2.21-98.11,60.54-96.8,62.82S239.34-.69,240.7,1.67c1.59,2.75-97.86,59.2-96.22,62,1.84,3.19,106.09-65.55,108-62.32,1.59,2.74-100.8,60.16-99.28,62.79C155,67.42,261.23-1.66,262.71.91S161.33,62,162.62,64.19c1.52,2.63,107.37-66,109.12-63s-98.62,59.24-97,62.13c1.3,2.24,107.41-65.88,109.08-63,1.27,2.2-101.08,61.07-99.66,63.54S287.94,0,289.68,3c1.6,2.77-96.31,58.62-94.94,61,1.15,2,97.45-60.22,99.16-57.25,1.36,2.35-88.08,54.66-87,56.6,1.36,2.35,90.31-55.56,91.79-53C300,12.58,215.58,60.6,216.94,63c1.14,2,83.89-50.75,84.89-49,1.33,2.3-75.14,47.67-74.22,49.26,1,1.79,76-46.28,77-44.47S236,61.21,237,62.88c1.16,2,67.6-41.38,68.62-39.62s-57.41,37.16-56.53,38.68,54.88-33.21,55.54-32.06c.77,1.32-46.79,30.41-46,31.72.64,1.1,46.76-28.36,47.35-27.33s-38.7,26.26-38.06,27.35c.53.93,36.95-22.57,37.48-21.64.45.76-24.69,19.2-24.37,19.75s18.87-11.53,19.15-11.06"/><path d="M237.53,43.43a14.83,14.83,0,0,0,1.32-3.36c.6-4.71,1-9.44,1.51-14.17.08-.77-.23-1.65,0-2.32A9.34,9.34,0,0,1,242,21.42c.53.67,1.49,1.33,1.51,2a82.49,82.49,0,0,1-.07,10.78,43.51,43.51,0,0,1-1.93,8.44c-.59,2-1.57,3.9-4,4.16s-3.78-1.36-4.81-3.15c-1.94-3.39-3.71-6.89-5.56-10.33-.44-.81-.91-1.59-1.6-2.79a16.08,16.08,0,0,0-.82,2c-.87,3.9-1.61,7.82-2.62,11.68-.21.79-1.34,1.34-2,2-.43-.87-1.35-1.85-1.2-2.61.86-4.45,1.92-8.87,3-13.27.41-1.65,1.28-3.45,3.16-3.25a5.64,5.64,0,0,1,3.67,2.36c1.91,3,3.35,6.36,5.07,9.52.85,1.56,1.9,3,2.85,4.5Z"/><path d="M49,38.66c1.44,3,1.18,5.36-.88,7.27a7.38,7.38,0,0,1-7.7,1.41C32.69,44.86,30.07,38,34.8,31.47c2.9-4,6.72-7.34,10.18-10.93a4,4,0,0,1,2.18-1.29,7.33,7.33,0,0,1,2.59.68c-.34.78-.46,1.94-1,2.26-4.89,2.68-8.4,6.74-11.37,11.29-3.12,4.77-1,9.65,4.63,10.81A5.22,5.22,0,0,0,44.91,44c1.49-.65,2.14-1.71.94-3.34-1.69-2.29-1.36-3.77,1.33-4.62a99.43,99.43,0,0,1,10.93-2.65c.7-.14,1.61.75,2.42,1.17-.61.67-1.12,1.74-1.86,1.94C55.6,37.31,52.45,37.9,49,38.66Z"/><path d="M265.67,36.18a7.66,7.66,0,0,1,1.53,1c1.74,1.91,1.75,3.89.09,5.91-3,3.69-11,5.28-15.2,3a7,7,0,0,1-3.55-8.77c2.36-6.61,6.36-11.89,13.46-14,.75-.22,1.8.56,2.71.88-.57.78-1,2.06-1.73,2.26-5.74,1.59-8.68,6-11,10.89-1.58,3.38.32,6.18,4.07,6.3,2.84.09,5.65-.23,8-2.16,1.15-.95,1.32-1.89,0-2.81a3,3,0,0,1-.91-.74c-.77-1.16-2.11-2.43-2-3.53.09-.83,2-1.72,3.23-2.11a23.17,23.17,0,0,1,5.78-1c.74,0,1.53.86,2.3,1.33-.59.61-1.08,1.53-1.79,1.78a31.75,31.75,0,0,1-4.56.92Z"/><path d="M146,31c-2.15-1-2-2.56-.55-3.87a48.91,48.91,0,0,1,7.8-6.16c1.31-.78,3.58-.68,5.15-.17,6.65,2.18,9.44,11,5.42,16.7A13.72,13.72,0,0,1,155,43.3c-3.46.64-6.77.16-9.07-2.93S144.33,34.2,146,31Zm.66-.37c2.26,1,2.32,2.22,1.57,4a3.62,3.62,0,0,0,2,5c3.31,1.31,6.13.11,8.73-1.88s3.91-4.36,3.28-7.53A8,8,0,0,0,157.44,24c-2.54-1-4.58.44-6.36,2C149.57,27.33,148.28,28.92,146.65,30.65Z"/><path d="M73.05,45.4a44.68,44.68,0,0,1-5.9-1.93c-4.78-2.19-5.82-5.7-3-10.11,1.94-3,3.74-6.37,7.54-7.42a15.82,15.82,0,0,1,6.38-.81c7.07,1.1,9.9,7,6.53,13.28C82.44,42.48,79.39,45.46,73.05,45.4Zm0-3.4c5.19.16,7.21-2.49,8.81-5.58,1.88-3.61.55-6.83-3.41-7.76a12.27,12.27,0,0,0-5.24.27c-3.61.8-5,4-6.62,6.79C65.48,37.61,66,39.13,67.82,40A54,54,0,0,0,73.06,42Z"/><path d="M119,37.92c-3-1.7-3-2.36-.13-4.14a2.42,2.42,0,0,0,.77-1.53c.43-2.23.62-4.52,1.24-6.69.22-.75,1.4-1.23,2.15-1.84.35.91,1.08,1.85,1,2.72-.23,2.46-.8,4.89-1.28,7.62l10.43.66V27.11a5.85,5.85,0,0,1,.07-2.1,10,10,0,0,1,1.49-2.07c.57.69,1.56,1.33,1.65,2.09.27,2.16.16,4.37.24,6.56,0,1.52-.27,3.14,1.6,4a2.47,2.47,0,0,1,0,1.94c-1.73.79-1.22,2.28-1.51,3.59-.21,1-.94,2.52-1.58,2.6-1.74.2-1.68-1.41-1.72-2.68-.1-3.08-.1-3.06-3.29-3.2q-3-.14-6.09-.41c-1.17-.1-1.72.27-1.82,1.51a16.81,16.81,0,0,1-.74,4.38c-.3.82-1.32,1.37-2,2a8.17,8.17,0,0,1-1.09-2.72A31,31,0,0,1,119,37.92Z"/><path d="M198.71,20.8c2.37,1,5.06,1.67,7,3.22,3.28,2.56,3,6.52-.68,8.51a37.16,37.16,0,0,1-9,3c-1.67.41-2.67.87-2.81,2.71a36.36,36.36,0,0,1-.84,5.8c-.19.8-1.06,1.43-1.63,2.15-.57-.79-1.58-1.57-1.61-2.37-.05-1.77.51-3.55.61-5.34a28.43,28.43,0,0,0-.4-3.26c-.05-.63-.08-1.68.24-1.85,1.64-.84,1.55-2.38,1.81-3.8.18-.92.32-1.85.47-2.78.66-4,2.48-5.51,6.55-5.41ZM194.45,32l.52.81c2.73-1,5.49-1.85,8.14-3a2.68,2.68,0,0,0,1.23-2.17C204.15,26,201,24.7,198,24.72c-2.2,0-2.71,1.35-2.89,3.16C195,29.26,194.67,30.63,194.45,32Z"/><path d="M179.12,19.88c2.21.71,4.57,1.14,6.59,2.2,3.23,1.69,3.2,5.54-.15,6.93a56.41,56.41,0,0,1-10.13,2.78c-1.63.34-2.47.89-2.61,2.62a63.49,63.49,0,0,1-1,7.66c-.15.74-1.24,1.28-1.9,1.9-.51-.67-1.56-1.43-1.47-2,1-5.62,1.78-11.28,3.27-16.76C172.69,21.49,175.18,20.25,179.12,19.88Zm-5.06,8.74c3.76-.59,7.31-.9,10.6-2.94C180.11,22,175.45,23.29,174.06,28.62Z"/><path d="M110.57,41c-2.16-1.17-3.86-2.21-5.66-3.05-4.32-2-5.78-5.31-3.52-9.51a19.38,19.38,0,0,1,15.13-10.63c1.22-.16,2.85-.27,2.84,1.47,0,.61-1.5,1.63-2.42,1.76-5.09.7-8.85,3.45-11.78,7.42-2.34,3.17-1.71,5.06,1.78,6.74a27.81,27.81,0,0,1,4.47,2.56c2.91,2.1,2.83,5-.07,7.14-2.72,2-5.84,2.17-9,1.81-.6-.07-1.07-1.23-1.6-1.88a7.21,7.21,0,0,1,2.12-1.38c1.94-.44,3.95-.58,5.91-1C109.24,42.42,109.6,41.85,110.57,41Z"/><path d="M208.25,42.55c1.17-6,2.17-11.42,3.38-16.82.14-.64,1.42-1,2.18-1.51.36.76,1.13,1.59,1,2.27-.81,4.69-1.8,9.34-2.75,14a6.05,6.05,0,0,1-.65,2.22c-.43.6-1.31,1.29-1.9,1.22S208.52,42.87,208.25,42.55Z"/></g></g></svg>