<svg xmlns="http://www.w3.org/2000/svg" viewBox="0 0 302.69 60.26"><defs><style>.cls-1{fill:none;stroke:#b2b2b2;stroke-linecap:round;stroke-linejoin:round;stroke-width:0.5px;}</style></defs><g id="Livello_2" data-name="Livello 2"><g id="Livello_1-2" data-name="Livello 1"><path class="cls-1" d="M.25,34.59h0c.06.11,1.09,4,1.15,4.06C2.24,40.1,63.78.27,64.81,2,65.59,3.4,1.43,42.3,2.25,43.71,3.28,45.5,74.6-.48,75.65,1.34,76.87,3.45,3.28,47,4.47,49.05c1,1.69,80.87-49.38,82-47.37,1.38,2.4-80.75,49-79.55,51C8.45,55.32,93.35-.39,94.74,2,95.85,4,7.67,54,9,56.4,10.67,59.22,101.91-.22,103.21,2c1.15,2-90.33,55.87-89.15,57.91,1.4,2.43,98.44-60.5,100-57.75,1.27,2.2-88.25,53.26-86.8,55.76C29,60.83,122.49-.32,123.92,2.16c1.15,2-85.87,53.41-84.83,55.21,1.56,2.7,95.39-57.9,96.62-55.78,1.49,2.58-91.33,54.12-89.9,56.59,1.26,2.19,96-59.14,97.62-56.36,1.38,2.39-88.08,53.71-86.82,55.89s95.45-58,96.7-55.83c1.5,2.6-87.62,53.51-86.16,56.05,1.19,2,96.81-58.55,98-56.56S75,55.43,76.43,57.86C78,60.56,171.72,0,172.93,2.14c1.35,2.33-87.7,54-86.58,56C87.58,60.26,182.37,0,183.53,2c1.34,2.32-87.69,53.55-86.5,55.6S192.24-.27,193.5,1.91c1.1,1.91-87.65,54.32-86.55,56.21C108.46,60.75,202.7-.5,204.14,2c1.14,2-88.41,54.67-87.34,56.53,1.59,2.75,96-58.94,97.49-56.29,1.35,2.34-88.67,54.17-87.51,56.19,1.33,2.3,95.45-59,97.12-56.08,1.16,2-89.07,53.87-87.75,56.14S232.73-.42,234.1,2C235.27,4,145.85,56.12,147,58.1c1.47,2.54,96.51-59.47,98.13-56.66,1.12,1.94-89.67,54.93-88.49,57S253.37-.81,254.83,1.72c1.32,2.29-88,54.25-86.62,56.64C169.49,60.57,264.66,0,265.81,2S179,56.2,180.11,58.2,277.52-1.82,279.16,1c1.25,2.16-90.23,55.07-89,57.2s96.71-58.87,98-56.6c1.17,2-87.77,54.75-86.64,56.71C203,60.8,292.88,2,294.42,4.71,295.85,7.18,208.8,56,210.07,58.2,211.16,60.09,295.79,5.87,297,8s-76.23,47.84-75,50c.91,1.58,77.17-47.38,78.4-45.26.89,1.54-66.3,43.21-65.46,44.68s64.78-39.63,65.75-38c.87,1.51-57.66,36.75-56.79,38.25.74,1.29,55.19-34,56.11-32.39.68,1.18-46.39,30.77-45.66,32s45.88-28.29,46.66-26.94c.47.81-33.8,25-33.3,25.83s34.17-20.93,34.69-20c.35.61-23,18-22.63,18.71s20.8-12.62,21.06-12.16-14.3,13.55-14,14c.13.23,9.59-5.79,9.7-5.6"/><path class="cls-1" d="M9.9,1.84c0,.07,2.71-1.65,2.75-1.59.15.26-8.17,10.8-8,11.14S20.17,2,20.38,2.33c.32.55-16,14-15.73,14.47.4.69,25.41-15.44,25.74-14.86.47.8-28.31,21.6-27.92,22.28.6,1,38-23.42,38.62-22.3S2.81,28.42,3.43,29.48c.79,1.38,47.68-29.42,48.5-28,.63,1.09-49.66,32.79-48.84,34.2C4.09,37.43,60.42.86,61.16,2.15"/><path d="M61.07,35.26c-.7-.46-1.38-.88-2-1.35-1.84-1.31-2-3.33,0-4.06a88.74,88.74,0,0,1,11-2.93c.5-.11,1.77.86,1.73,1.23a2.66,2.66,0,0,1-1.33,2c-2.26.73-4.61,1.17-7,1.73,2.4,4.1,1.41,6.73-3.06,8.31a14.48,14.48,0,0,1-13.69-1.75C43.14,36,42,32.51,44,28.71A25.53,25.53,0,0,1,62.2,15.18c1.36-.29,2.75,0,2.68,1.62,0,.7-1.33,1.78-2.19,1.93-6.72,1.2-11.58,5-15.13,10.6-1.91,3-1.13,4.93,2,6.7C53.71,38.36,58.38,38.1,61.07,35.26Z"/><path d="M251.28,36.78c-4.32-4.27-4.15-5.07,1.37-7.41A76.88,76.88,0,0,1,260,26.48c.85-.26,2,.37,3,.6-.56.86-.92,2.12-1.71,2.51-2.57,1.27-5.29,2.22-8,3.3,2.4,4.42,1.84,6.33-2.58,8.54a14,14,0,0,1-12.65.31c-4-1.83-5.17-5.38-3.2-9.25,3.26-6.41,8.92-10,15.31-12.6.61-.25,1.7.69,2.57,1.07-.55.79-.93,2-1.68,2.3-4.58,2-8.78,4.49-11.78,8.7s-2,6.86,3.35,7.41A10.39,10.39,0,0,0,251.28,36.78Z"/><path d="M82.76,37.05a32.3,32.3,0,0,1-5.21-1.31c-3.35-1.43-4.21-4.7-4-8.12.35-5.5,4.13-7.23,8.19-8.77A14.59,14.59,0,0,1,95.68,20.5c3.71,2.49,4.31,6,1.64,9.58C93.73,34.9,88.64,36.65,82.76,37.05Zm-.05-3.41c4.5-.5,8.47-1.65,11.4-5.13,1.89-2.25,1.59-4-1-5.48a10.71,10.71,0,0,0-8.82-1.27c-2.7.89-6.25,1.09-6.14,5.36,0,.33-.42.69-.67,1A2.39,2.39,0,0,0,78.2,32,24.35,24.35,0,0,0,82.71,33.64Z"/><path d="M152,39.07c-.48-.06-1.47-.17-2.44-.32-3.18-.5-5.92-1.72-7.1-5a8.16,8.16,0,0,1,2.09-9.16c3.91-3.18,8.23-6.42,13.87-6a7.76,7.76,0,0,1,7.18,5.22c1.47,3.91.42,7.52-2.31,10.54A14.33,14.33,0,0,1,152,39.07Zm.36-3.52.27.55c2.28-1,4.74-1.71,6.78-3.05,3-2,4.1-5.86,2.75-8.4s-4.37-3.32-8.08-1.74c-2.14.91-3.95,2.59-6,3.71s-2.53,3.13-2.39,5.23,1.75,2.84,3.52,3.24C150.25,35.32,151.33,35.4,152.38,35.55Z"/><path d="M213.18,27.67c-.65,3.31-1.3,6.61-2,9.92-.14.72-.09,1.62-.5,2.12s-1.52,1.3-2.08,1.13a2.39,2.39,0,0,1-1.23-2c.86-4.53,1.77-9.06,3-13.51.8-3,3.46-3.46,5.39-1s3.63,5.49,5.39,8.28c.69,1.1,1.29,2.25,1.93,3.38l.69-.05c.6-3.6,1.24-7.18,1.8-10.78.36-2.28.45-4.61,1-6.85.18-.8,1.27-1.38,1.94-2.06.49.83,1.49,1.73,1.39,2.48-.86,6.29-1.79,12.57-3,18.8A5.39,5.39,0,0,1,223.91,41c-1.85.67-2.76-1.28-3.59-2.72-2.1-3.6-4.18-7.22-6.27-10.83Z"/><path d="M125.15,42.34a6,6,0,0,1-6-4.18c-1.76-4.45-3.39-8.95-5.06-13.43-.4-1.08-.68-2.21-1.11-3.27-.56-1.38-.74-2.72,1-3.26s2.12.74,2.55,2c1.71,5,3.39,10,5.24,14.92a18.37,18.37,0,0,0,2.38,3.55c1.24-1,2.85-1.69,3.68-2.94,3.26-4.86,6.27-9.89,9.38-14.85a7.09,7.09,0,0,1,1.45-2c.49-.37,1.59-.63,1.93-.35.49.42.55,1.36.77,2.08,0,.06,0,.16-.07.23-4.22,6.49-8.36,13-12.74,19.42C127.68,41.43,125.91,41.89,125.15,42.34Z"/><path d="M178.17,25c-2.1.8-3.93,1.42-5.71,2.18-1.25.53-2.48.93-3.12-.63s.45-2.33,1.73-2.71c6.48-1.89,13-3.79,19.49-5.52.71-.19,1.71.7,2.57,1.09-.61.74-1.08,1.87-1.86,2.14a53.09,53.09,0,0,1-6.94,1.78A2.67,2.67,0,0,0,181.81,26c-.4,4.09-1.06,8.17-1.66,12.25-.19,1.34-.16,3.21-2.18,2.88s-1.44-2.13-1.28-3.47c.44-3.68,1-7.35,1.47-11A16.78,16.78,0,0,0,178.17,25Z"/><path d="M200.36,23.92c-.62,5.76-1.06,10.67-1.75,15.56-.11.83-1.31,1.51-2,2.26-.46-.91-1.38-1.86-1.31-2.74q.54-7.26,1.56-14.47c.12-.85,1.24-1.56,1.9-2.33Z"/></g></g></svg>