<svg xmlns="http://www.w3.org/2000/svg" viewBox="0 0 305.76 67.17"><defs><style>.cls-1{fill:none;stroke:#b2b2b2;stroke-linecap:round;stroke-linejoin:round;stroke-width:0.5px;}</style></defs><g id="Livello_2" data-name="Livello 2"><g id="Livello_1-2" data-name="Livello 1"><path class="cls-1" d="M9.71,10.43c0,.09,3.46-2.1,3.51-2C13.42,8.77.41,21.72.68,22.19S22.76,8.75,23.06,9.26C23.5,10,0,27.18.32,27.78c.5.88,32.42-19.69,32.84-19C33.7,9.76-.2,33.2.25,34,.94,35.17,43.57,7.27,44.31,8.54S.66,38,1.36,39.16c.89,1.55,53.42-33,54.34-31.38C56.39,9,.91,43.35,1.81,44.9,2.92,46.81,64.75,6.68,65.56,8.1s-61.3,39.45-60.43,41S76.39,5.83,77.29,7.4c1.13,2-72,44.58-71.11,46.17,1.15,2,79.11-48.27,80.23-46.32C87.36,8.89,8,56,9,57.69c1.45,2.52,86.64-53,87.93-50.77,1.48,2.55-84.86,51.45-83.38,54,1.23,2.12,93.25-56.37,94.34-54.47,1.24,2.13-91.52,56-90.34,58C19.11,67.22,117.59,2.73,119.32,5.74,120.55,7.86,24,63.79,25.49,66.31,27.14,69.18,128.91,3,130.48,5.7c1.41,2.45-95.4,58.1-93.82,60.84,1.69,2.93,105.82-64.7,107.38-62,1.35,2.34-97.19,60-95.94,62.11s106-64.43,107.37-62c1.58,2.74-99.18,59.84-97.84,62.16,1.62,2.81,107.88-65.33,109.2-63C168,5.9,65.77,64.23,67.11,66.55S174.22,1.66,175.54,3.94,74.09,64.33,75.51,66.8,183.81,1.09,185.18,3.48C186.89,6.43,82.94,64.39,84.24,66.64c1.45,2.51,109.05-67,110.82-64C196.66,5.43,94.29,63.24,95.86,66S203.8-.12,205.43,2.69s-102,62-100.84,64.07C106.44,70,214.53-.09,216,2.44c1.19,2.07-101.93,61.27-100.18,64.3C117.25,69.21,226.18-.55,227.73,2.13,229.38,5,124.48,63.81,126.06,66.54c1.48,2.57,111-68.46,112.88-65.17,1.33,2.3-102.39,62.88-101,65.25S250.17-1.46,251.59,1c1.66,2.88-102.46,61.69-100.75,64.64C152.75,69,261.43-2.71,263.37.66,265,3.53,157.88,63.38,159.47,66.13c1.95,3.39,112.44-68.48,114-65.81S167.55,63.85,168.89,66.18C170.47,68.9,279.93-2.09,281.73,1S179.28,62.34,181,65.34c1.27,2.21,105.93-65,107.58-62.12,1.26,2.17-99.61,60.27-98.21,62.71S292,3.32,293.72,6.26C295.29,9,199.54,63.73,200.88,66c1.11,1.92,93.57-57.81,95.21-55,1.3,2.25-84.1,52.48-83,54.34,1.28,2.21,84.61-52,86-49.65,1.21,2.09-77.26,47.09-76,49.27,1,1.82,77.2-46.7,78.12-45.1,1.22,2.11-68.26,43.88-67.42,45.34.94,1.62,69.09-42.08,70-40.44S242.3,63.42,243.16,64.92c1.05,1.82,61.42-37.59,62.34-36,.83,1.44-50.9,33.62-50.11,35s47.52-28.76,48.09-27.76-39,26.18-38.35,27.29c.52.9,38.83-23.56,39.32-22.71s-29.9,21.49-29.4,22.36c.4.7,28.22-17.23,28.62-16.53.29.5-14.9,13.81-14.69,14.16s15.3-9.34,15.52-9"/><path d="M60.7,36.51c1.17,1,2,1.57,2.76,2.27,2.26,2.09,2.4,4.53.2,6.67a12.85,12.85,0,0,1-8.42,3.95,16.21,16.21,0,0,1-11.48-4,9,9,0,0,1-1.11-13A31.26,31.26,0,0,1,59.12,22.27,3.18,3.18,0,0,1,60.88,22a14.71,14.71,0,0,1,2.44,1.48c-.65.67-1.22,1.77-2,1.93a28.37,28.37,0,0,0-14.72,7.87c-4.1,4.09-3.28,8.65,2,11.1,3.94,1.83,7.8,2.16,11.54-.59,1.44-1.07,1.73-2,.05-3.07-.63-.41-1.26-.83-1.87-1.26-2.53-1.78-2.79-4.27-.06-5.45C62,32.43,66.12,31.6,70.1,30.6c.46-.11,1.77,1,1.69,1.28-.25.79-.84,1.83-1.53,2.05-2.07.67-4.25,1-6.38,1.47C63,35.63,62.05,36,60.7,36.51Z"/><path d="M136.48,38.77l10.66,4.11A11.77,11.77,0,0,1,150.06,44a7.84,7.84,0,0,1,1.51,2.36c-.89.29-1.93,1-2.64.81-3.93-1.3-7.78-2.84-11.66-4.29-.91-.34-1.81-.7-2.9-1.13a17.39,17.39,0,0,1-1.83,3.41c-.5.58-1.59.66-2.42,1a11,11,0,0,1-.66-2.38,3.74,3.74,0,0,1,.69-1.64c.57-1,.81-1.87-.23-3a2.15,2.15,0,0,1,1.42-3.71c3.42-.52,3.77-3.52,5.2-5.66.17-.25,0-.83-.19-1.2-.88-2-.33-3.09,1.83-3a38.64,38.64,0,0,1,6.93.95A36.41,36.41,0,0,1,152,28.71a5.15,5.15,0,0,1,2.72,2.83c.45,1.8-1.35,2.59-2.78,3-4.28,1.15-8.61,2.13-12.93,3.15-.8.19-1.61.3-2.42.45ZM148.92,32v-.78c-2.32-.57-4.63-1.19-7-1.68a1.75,1.75,0,0,0-1.5.47c-.7,1.19-1.21,2.49-2,4.25Z"/><path d="M262.09,37.05c3,1.65,4.75,3.36,4.16,6.27a7.65,7.65,0,0,1-5.43,5.85,14.05,14.05,0,0,1-14.17-2.89,8,8,0,0,1-2.48-9c2.33-7,7.25-11.42,14.41-13.34a2.48,2.48,0,0,1,1.55-.1,14,14,0,0,1,2,1.7c-.58.58-1.09,1.6-1.74,1.69-5,.69-8.4,3.58-11.12,7.43-3.94,5.57-1.65,10.6,5.17,11.51,2.49.34,5,.43,7-1.54,1.77-1.71,1.64-2.85-.51-4a4.29,4.29,0,0,1-1-.48c-.91-.89-2.44-1.83-2.45-2.76s1.23-2.43,2.28-2.94a77.38,77.38,0,0,1,9.43-3.74c.72-.24,1.77.53,2.67.84-.5.8-.81,2-1.52,2.33C267.87,35,265.24,35.88,262.09,37.05Z"/><path d="M181.37,28.42a1.27,1.27,0,0,1-.47-.19c-.7-.63-1.37-1.29-2.06-1.94.87-.55,1.77-1.6,2.59-1.55,4.34.3,8.67.86,13,1.38a29.2,29.2,0,0,1,3.31.73c5,1.18,7.54,5.49,5.64,10.25a12.44,12.44,0,0,1-3.81,5.12,40.09,40.09,0,0,1-16,6.92c-.71.16-1.62-.61-2.44-1,.5-.79.84-2,1.53-2.28,1.51-.53,1.47-1.34,1.22-2.58-.73-3.6-1.39-7.21-2-10.83C181.59,31.19,181.52,29.85,181.37,28.42Zm6.32,15.85c4.06-1.58,7.92-2.88,10.82-5.83a5.94,5.94,0,0,0,1.73-3.74c0-1.28-.79-3.31-1.76-3.69a36.73,36.73,0,0,0-13.76-2.43C185.73,33.91,186.68,39,187.69,44.27Z"/><path d="M155.92,43.78c-1-.88-2.73-1.77-2.72-2.65,0-1.89,2-1.38,3.33-1.69a3.64,3.64,0,0,0,2.21-1.63c1.4-3,2.49-6.11,3.85-9.11,1.43-3.18,3.63-3.79,6.22-1.51a19.14,19.14,0,0,1,4.28,5.41,127.91,127.91,0,0,1,5.26,11.92,3.06,3.06,0,0,1-.57,2.82c-1.36.86-2.1-.42-2.66-1.54-2-4-2-4-6.57-3.53-1.5.16-3,.37-4.49.47-1.9.13-3.78.08-4.28,2.62-.09.48-1.27,1-1.91,1-.46,0-.94-1-1.24-1.58a3.21,3.21,0,0,1,0-1.32ZM166,29.62c-1.34,3.3-2.56,6.33-4,9.84l9.73-1.18C170.39,34.84,169.26,31.78,166,29.62Z"/><path d="M220.65,32.53c-.73,4.3-1.33,7.9-1.94,11.5a5,5,0,0,1-.41,2c-.41.6-1.35,1.45-1.74,1.31a2.54,2.54,0,0,1-1.49-1.81,33.4,33.4,0,0,1,.64-5.34c.46-2.82.89-5.64,1.51-8.42.66-2.95,2.85-3.92,5.2-2.05a97,97,0,0,1,7.51,7.12c1.64,1.62,3.21,3.32,4.8,5l.63-.23c-.06-1.36,0-2.74-.2-4.09-.36-3.06-.92-6.1-1.14-9.16-.06-.88.6-2.42,1.26-2.63,1.54-.5,2,.92,2.16,2.16.49,5.14,1,10.28,1.24,15.43a4.16,4.16,0,0,1-1.94,3.34c-.9.33-2.65-.6-3.56-1.47-3.15-3-6.09-6.24-9.13-9.36C223.12,34.81,222.12,33.93,220.65,32.53Z"/><path d="M85.3,46a41.26,41.26,0,0,1-5.25-1.2c-3.48-1.29-6.07-3.66-6.18-7.54-.11-3.71.75-7.22,4.78-8.87.25-.11.64-.32.65-.51.25-2.93,2.38-2.44,4-1.91a32,32,0,0,1,7.77,3.39,8.65,8.65,0,0,1,3.58,10.27C93.25,43.53,89.83,45.79,85.3,46ZM81.2,29.21a20.74,20.74,0,0,1-1.88,2.72c-3.22,3.28-2.48,7.83,1.81,9.42a14.72,14.72,0,0,0,5.73.68c2.31-.12,3.77-1.68,4.51-3.85s-.09-3.66-1.43-5.11C87.55,30.49,84.4,29.64,81.2,29.21Z"/><path d="M113.81,31c-2.36.35-4.52.64-6.67,1-1.26.21-2.62.4-2.94-1.18s1.08-2.12,2.4-2.31q9.29-1.35,18.58-2.63a64.57,64.57,0,0,1,7.18-.78c.9,0,2.39.69,2.59,1.36.46,1.54-1,2-2.22,2.12-4.26.53-8.52,1.08-12.8,1.5-1.81.17-2.38.81-2.15,2.7.53,4.16.79,8.36,1.13,12.55.1,1.32.06,2.79-1.72,2.83-1.61,0-1.76-1.34-1.87-2.58q-.55-6.61-1.15-13.23A9.61,9.61,0,0,0,113.81,31Z"/><path d="M210.91,37.44c-.1,2.39-.21,4.79-.32,7.18-.05,1.23-.42,2.49-1.85,2.2a2.85,2.85,0,0,1-1.55-2.22c-.1-4.94,0-9.89.14-14.83,0-.74.94-1.44,1.44-2.17.67.66,1.86,1.27,1.92,2,.23,2.6.09,5.23.09,7.85Z"/></g></g></svg>