<svg xmlns="http://www.w3.org/2000/svg" viewBox="0 0 305.76 67.17"><defs><style>.cls-1{fill:none;stroke:#b2b2b2;stroke-linecap:round;stroke-linejoin:round;stroke-width:0.5px;}</style></defs><g id="Livello_2" data-name="Livello 2"><g id="Livello_1-2" data-name="Livello 1"><path class="cls-1" d="M9.71,10.43c0,.09,3.46-2.1,3.51-2C13.42,8.77.41,21.72.68,22.19S22.76,8.75,23.06,9.26C23.5,10,0,27.18.32,27.78c.5.88,32.42-19.69,32.84-19C33.7,9.76-.2,33.2.25,34,.94,35.17,43.57,7.27,44.31,8.54S.66,38,1.36,39.16c.89,1.55,53.42-33,54.34-31.38C56.39,9,.91,43.35,1.81,44.9,2.92,46.81,64.75,6.68,65.56,8.1s-61.3,39.45-60.43,41S76.39,5.83,77.29,7.4c1.13,2-72,44.58-71.11,46.17,1.15,2,79.11-48.27,80.23-46.32C87.36,8.89,8,56,9,57.69c1.45,2.52,86.64-53,87.93-50.77,1.48,2.55-84.86,51.45-83.38,54,1.23,2.12,93.25-56.37,94.34-54.47,1.24,2.13-91.52,56-90.34,58C19.11,67.22,117.59,2.73,119.32,5.74,120.55,7.86,24,63.79,25.49,66.31,27.14,69.18,128.91,3,130.48,5.7c1.41,2.45-95.4,58.1-93.82,60.84,1.69,2.93,105.82-64.7,107.38-62,1.35,2.34-97.19,60-95.94,62.11s106-64.43,107.37-62c1.58,2.74-99.18,59.84-97.84,62.16,1.62,2.81,107.88-65.33,109.2-63C168,5.9,65.77,64.23,67.11,66.55S174.22,1.66,175.54,3.94,74.09,64.33,75.51,66.8,183.81,1.09,185.18,3.48C186.89,6.43,82.94,64.39,84.24,66.64c1.45,2.51,109.05-67,110.82-64C196.66,5.43,94.29,63.24,95.86,66S203.8-.12,205.43,2.69s-102,62-100.84,64.07C106.44,70,214.53-.09,216,2.44c1.19,2.07-101.93,61.27-100.18,64.3C117.25,69.21,226.18-.55,227.73,2.13,229.38,5,124.48,63.81,126.06,66.54c1.48,2.57,111-68.46,112.88-65.17,1.33,2.3-102.39,62.88-101,65.25S250.17-1.46,251.59,1c1.66,2.88-102.46,61.69-100.75,64.64C152.75,69,261.43-2.71,263.37.66,265,3.53,157.88,63.38,159.47,66.13c1.95,3.39,112.44-68.48,114-65.81S167.55,63.85,168.89,66.18C170.47,68.9,279.93-2.09,281.73,1S179.28,62.34,181,65.34c1.27,2.21,105.93-65,107.58-62.12,1.26,2.17-99.61,60.27-98.21,62.71S292,3.32,293.72,6.26C295.29,9,199.54,63.73,200.88,66c1.11,1.92,93.57-57.81,95.21-55,1.3,2.25-84.1,52.48-83,54.34,1.28,2.21,84.61-52,86-49.65,1.21,2.09-77.26,47.09-76,49.27,1,1.82,77.2-46.7,78.12-45.1,1.22,2.11-68.26,43.88-67.42,45.34.94,1.62,69.09-42.08,70-40.44S242.3,63.42,243.16,64.92c1.05,1.82,61.42-37.59,62.34-36,.83,1.44-50.9,33.62-50.11,35s47.52-28.76,48.09-27.76-39,26.18-38.35,27.29c.52.9,38.83-23.56,39.32-22.71s-29.9,21.49-29.4,22.36c.4.7,28.22-17.23,28.62-16.53.29.5-14.9,13.81-14.69,14.16s15.3-9.34,15.52-9"/><path d="M173.17,37.76a18.45,18.45,0,0,1,1.14,3.54c.11.73-.54,1.57-.84,2.36l-2.18-1.29c-.06,0-.06-.14-.09-.21-2-4.26-2-4.26-6.53-2.68-4.24,1.47-8.22,3.32-11.23,6.85a2.08,2.08,0,0,1-2,.29,2.78,2.78,0,0,1-.62-2.17c.1-.71.77-1.33,1.14-2,2.66-4.87,5.32-9.74,7.94-14.62.9-1.67,2-3,4.06-3.11s3.5,1.17,4.47,2.9c.69,1.22,1.33,2.48,1.9,3.77s1.07,2.56,3,2.24c.42-.08,1.49.86,1.43,1.13A15.23,15.23,0,0,1,173.17,37.76Zm-4.92-3.11c-1-2-1.84-3.81-2.8-5.49-.6-1.06-1.58-1.5-2.32-.15-1.58,2.89-3,5.85-4.76,9.22Z"/><path d="M197.08,30.68c-2.5,1.79-4.33,3.25-6.31,4.48-2.89,1.8-4.4,1.33-6.14-1.54a41.94,41.94,0,0,1-2.54-3.9c-.35-.74,0-1.78,0-2.69.94.19,2.26,0,2.74.62a43.4,43.4,0,0,1,3.38,5.24c1.65-1.17,3.21-2.26,4.75-3.38s2.92-2.38,4.52-3.33c.76-.45,2.24-.76,2.71-.35a3.57,3.57,0,0,1,.87,2.86,24.22,24.22,0,0,1-6.61,13.2c-3.47,3.43-7.59,6.19-11.53,9.11-.5.38-1.63-.08-2.47-.15.2-.82.14-2,.66-2.39,2-1.63,4.17-3,6.27-4.5A26.57,26.57,0,0,0,197.08,30.68Z"/><path d="M124.1,23.5h.23c3.65,0,6.19,1.23,6.82,3.41.69,2.35-.85,5.27-4.21,6.79a42,42,0,0,1-8.86,2.76c-1.82.36-2.49,1.06-2.63,2.79-.16,2-.49,4-.78,6-.18,1.25-.65,2.42-2.18,2.15s-1.56-1.47-1.3-2.76c.32-1.6.61-3.21.83-4.82.17-1.25.74-2.62-.91-3.51a5.88,5.88,0,0,1,.73-2.35c.39-.74,1.44-1.31,1.51-2C114,24.82,118.64,23.67,124.1,23.5Zm-7.16,10.37c3.3-1.24,6.28-2.26,9.15-3.54.76-.34,1.16-1.51,1.73-2.3a10.11,10.11,0,0,0-2.61-1.14,12.51,12.51,0,0,0-3.71.17C117.86,27.68,116.79,29.12,116.94,33.87Z"/><path d="M134.27,43.32c3.46-.35,6.47-.77,9.5-.88.94,0,2.6.65,2.73,1.27.36,1.7-1.23,1.8-2.49,1.95-3,.36-6,.67-9.07,1.08-3.34.45-4.94-1.31-3.86-4.55,1.19-3.56,2.58-7,3.89-10.55.55-1.47,1.15-2.91,1.68-4.38.43-1.18.95-2.38,2.45-1.82s1.17,1.92.68,3.16c-1.61,4.15-3.19,8.31-4.77,12.47C134.76,41.71,134.58,42.38,134.27,43.32Z"/></g></g></svg>