<svg xmlns="http://www.w3.org/2000/svg" viewBox="0 0 305.76 67.17"><defs><style>.cls-1{fill:none;stroke:#b2b2b2;stroke-linecap:round;stroke-linejoin:round;stroke-width:0.5px;}</style></defs><g id="Livello_2" data-name="Livello 2"><g id="Livello_1-2" data-name="Livello 1"><path class="cls-1" d="M9.71,10.43c0,.09,3.46-2.1,3.51-2C13.42,8.77.41,21.72.68,22.19S22.76,8.75,23.06,9.26C23.5,10,0,27.18.32,27.78c.5.88,32.42-19.69,32.84-19C33.7,9.76-.2,33.2.25,34,.94,35.17,43.57,7.27,44.31,8.54S.66,38,1.36,39.16c.89,1.55,53.42-33,54.34-31.38C56.39,9,.91,43.35,1.81,44.9,2.92,46.81,64.75,6.68,65.56,8.1s-61.3,39.45-60.43,41S76.39,5.83,77.29,7.4c1.13,2-72,44.58-71.11,46.17,1.15,2,79.11-48.27,80.23-46.32C87.36,8.89,8,56,9,57.69c1.45,2.52,86.64-53,87.93-50.77,1.48,2.55-84.86,51.45-83.38,54,1.23,2.12,93.25-56.37,94.34-54.47,1.24,2.13-91.52,56-90.34,58C19.11,67.22,117.59,2.73,119.32,5.74,120.55,7.86,24,63.79,25.49,66.31,27.14,69.18,128.91,3,130.48,5.7c1.41,2.45-95.4,58.1-93.82,60.84,1.69,2.93,105.82-64.7,107.38-62,1.35,2.34-97.19,60-95.94,62.11s106-64.43,107.37-62c1.58,2.74-99.18,59.84-97.84,62.16,1.62,2.81,107.88-65.33,109.2-63C168,5.9,65.77,64.23,67.11,66.55S174.22,1.66,175.54,3.94,74.09,64.33,75.51,66.8,183.81,1.09,185.18,3.48C186.89,6.43,82.94,64.39,84.24,66.64c1.45,2.51,109.05-67,110.82-64C196.66,5.43,94.29,63.24,95.86,66S203.8-.12,205.43,2.69s-102,62-100.84,64.07C106.44,70,214.53-.09,216,2.44c1.19,2.07-101.93,61.27-100.18,64.3C117.25,69.21,226.18-.55,227.73,2.13,229.38,5,124.48,63.81,126.06,66.54c1.48,2.57,111-68.46,112.88-65.17,1.33,2.3-102.39,62.88-101,65.25S250.17-1.46,251.59,1c1.66,2.88-102.46,61.69-100.75,64.64C152.75,69,261.43-2.71,263.37.66,265,3.53,157.88,63.38,159.47,66.13c1.95,3.39,112.44-68.48,114-65.81S167.55,63.85,168.89,66.18C170.47,68.9,279.93-2.09,281.73,1S179.28,62.34,181,65.34c1.27,2.21,105.93-65,107.58-62.12,1.26,2.17-99.61,60.27-98.21,62.71S292,3.32,293.72,6.26C295.29,9,199.54,63.73,200.88,66c1.11,1.92,93.57-57.81,95.21-55,1.3,2.25-84.1,52.48-83,54.34,1.28,2.21,84.61-52,86-49.65,1.21,2.09-77.26,47.09-76,49.27,1,1.82,77.2-46.7,78.12-45.1,1.22,2.11-68.26,43.88-67.42,45.34.94,1.62,69.09-42.08,70-40.44S242.3,63.42,243.16,64.92c1.05,1.82,61.42-37.59,62.34-36,.83,1.44-50.9,33.62-50.11,35s47.52-28.76,48.09-27.76-39,26.18-38.35,27.29c.52.9,38.83-23.56,39.32-22.71s-29.9,21.49-29.4,22.36c.4.7,28.22-17.23,28.62-16.53.29.5-14.9,13.81-14.69,14.16s15.3-9.34,15.52-9"/><path d="M222.49,42.11a9.14,9.14,0,0,1-.06,2.59,6.84,6.84,0,0,1-1.37,1.83c-.61-.54-1.66-1-1.77-1.63-.43-2.54-.57-5.13-.82-7.71-.22-2.36-.4-4.73-.71-7.08-.07-.55-.57-1-.83-1.57s-.84-1.36-.66-1.77A2.55,2.55,0,0,1,218,25.5a20,20,0,0,1,5.24-.09c3.32.51,6.62,1.21,9.87,2,1.59.4,3,1.37,3.11,3.28a3.77,3.77,0,0,1-2.61,3.73c-2.77,1.15-5.68,2-8.54,2.9a4.26,4.26,0,0,0-2,1.11c1.71.71,3.39,1.54,5.16,2.1,2.87.92,5.8,1.67,8.7,2.5,1.2.35,2.84.59,2.4,2.29s-2.09,1.26-3.35.88c-4.1-1.24-8.17-2.55-12.26-3.82C223.34,42.3,223,42.23,222.49,42.11Zm10-10.43-.09-1c-3.59-1.55-7.4-1.94-11.43-2.19.34,2.2.63,4.1,1,6.36Z"/><path d="M39.24,27.57c1,3.89,1.93,7.58,2.85,11.29a9.28,9.28,0,0,1,.19,1.66c.31,5.37-3,8.73-8.29,7.8a73.32,73.32,0,0,1-11.86-3.53,54.69,54.69,0,0,1-6.6-3.27c-1.12-.58-2.57-1.22-1.7-2.79s2.2-.67,3.32-.11c1.44.71,2.81,1.63,4.3,2.2q5.49,2.13,11.08,4a9.12,9.12,0,0,0,3.54.24A2.83,2.83,0,0,0,38.9,42c-.06-4.54-.9-8.91-3.45-12.77a2.41,2.41,0,0,0-1.81-.87c-2.38.07-4.76.47-7.14.42-.77,0-1.53-1-2.29-1.55.75-.57,1.44-1.53,2.26-1.64,5.84-.79,11.7-1.42,17.56-2.1.42-.05.93-.26,1.24-.1a16.22,16.22,0,0,1,2,1.43c-.51.58-.92,1.48-1.55,1.68a27,27,0,0,1-4.15.7Z"/><path d="M182.59,39.87a10.57,10.57,0,0,1-2.54,1c-.65.07-1.81-.23-1.93-.62a2.6,2.6,0,0,1,.54-2.12c.72-.85,2.24-1.32,2.47-2.19s-.54-2.24-.88-3.37c-.27-.87-.58-1.73-.8-2.61a4.16,4.16,0,0,1,2-5c5.12-2.89,10.6-3.05,16.1-1.46,2.91.85,3.55,3.88,1.1,5.93a102.47,102.47,0,0,1-10.59,7.48c-2.37,1.52-2.49,1.35-1.38,3.9A49.14,49.14,0,0,1,188.94,46c.23.77-.35,1.79-.56,2.69-.78-.41-1.91-.63-2.26-1.28C184.83,45,183.8,42.51,182.59,39.87ZM184.52,35a45.78,45.78,0,0,0,12.34-8.39c-4.81-1.08-8.92-1.12-12.88.75a2.39,2.39,0,0,0-1.19,1.85A56.61,56.61,0,0,0,184.52,35Z"/><path d="M82.1,33.91c-.53,2.86-1.06,5.71-1.6,8.57a3.82,3.82,0,0,1-.37,1.61,14.55,14.55,0,0,1-2,1.76c-.41-.77-1.27-1.6-1.17-2.3.56-3.8,1.27-7.58,2.1-11.33.67-3,3.24-3.8,5.24-1.44a87.34,87.34,0,0,1,5.34,7.76c1,1.41,2,2.8,3.34,4.76a41.14,41.14,0,0,0,1.91-5c1-4.42,1.79-8.89,2.71-13.33.27-1.28,0-3.26,2.08-3s1.46,2.17,1.19,3.42c-1.2,5.66-2.46,11.31-3.91,16.91-.46,1.77-1.31,3.75-3.5,4.07S90,44.84,88.85,43.28c-2.17-3.07-4.14-6.28-6.19-9.43Z"/><path d="M212.36,42.9c-3.7.84-7.19,1.58-10.64,2.46a3,3,0,0,0-1.42,1.34c-.44.7-.51,1.67-1,2.26a6.17,6.17,0,0,1-2,1c-.31-.7-1-1.47-.85-2.08.24-1.24.66-2.31-.34-3.48-.18-.21.56-1.32,1-1.91.59-.75,1.55-1.29,1.94-2.12,1.31-2.77,2.4-5.66,3.67-8.46s3.65-3.57,5.82-1.33A41.65,41.65,0,0,1,214,38.33a24.46,24.46,0,0,1,2.38,6.25c.19.72-.61,1.71-1,2.57a9.05,9.05,0,0,1-2.07-1.6A10.77,10.77,0,0,1,212.36,42.9Zm-5.8-10.12-.82.31L201.91,42l9.41-2.36Z"/><path d="M55.46,27A10,10,0,0,1,65,34.24c1.16,4.31-1,8.93-5.43,11.43A9.14,9.14,0,0,1,49.07,45c-2.61-2.2-3.16-5.3-1.67-9.37.1-.26.36-.58.28-.76-1.09-2.47.25-4.17,1.85-5.71A7.79,7.79,0,0,1,55.46,27Zm6.5,9.6c-.08-4.49-5.11-7.72-9-5.74a4.67,4.67,0,0,0-2.76,4.06,16.16,16.16,0,0,1-.15,3,4.41,4.41,0,0,0,3.8,5.8C57.58,44.22,62,40.32,62,36.59Z"/><path d="M157,35.13a17.81,17.81,0,0,1,3.7-.51,2.5,2.5,0,0,1,1.75,1.31c.14.37-.6,1.29-1.14,1.67a3.92,3.92,0,0,1-2,.51c-2.14.08-2.61,1.26-2.54,3.17s1.42,2.52,2.94,2.52c2.66,0,5.32-.25,8-.44,1.23-.09,2.6-.33,2.79,1.34.17,1.49-1.1,1.82-2.26,1.89a67.57,67.57,0,0,1-9.63.34c-3.71-.32-5-2.21-5.07-5.92,0-1,.15-1.8-1.13-2.36-1.49-.66-1.3-1.87,0-2.9a3.54,3.54,0,0,0,1.18-2.06c.2-1.3,0-2.66.13-4,.18-2,1-3.41,3.29-3.68,2.58-.3,5.12-1,7.7-1.18.78-.07,1.65.78,2.47,1.21-.66.66-1.22,1.68-2,1.9a44.74,44.74,0,0,1-6.42,1.16c-1.33.16-1.83.72-1.73,2S157,33.64,157,35.13Z"/><path d="M277.35,36c-5.8.35-9-2.16-9.72-7.45-.1-.72.69-1.57,1.06-2.36.67.47,1.67.79,2,1.43,2.8,6.19,3,6.38,9.32,3.5,2.73-1.25,5.25-2.95,7.85-4.46,1.06-.61,2.31-1.05,2.89.25a3,3,0,0,1-.82,2.61c-5.8,5.47-11.69,10.84-17.58,16.22-1,.93-2,2.79-3.59,1.24s.34-2.6,1.28-3.58C272.3,41,274.7,38.67,277.35,36Z"/><path d="M144.94,41.18c-2.69.4-5.25.72-7.77,1.23-.39.08-.55,1.08-.92,1.57-.49.66-1.08,1.25-1.63,1.87a22.76,22.76,0,0,1-1.66-2,7.53,7.53,0,0,1-1-2.14,4.3,4.3,0,0,1,0-2.08c.3-1.14,1-2.19,1.17-3.34.25-1.36,0-2.82.33-4.15.16-.68,1.11-1.17,1.7-1.74.51.65,1.41,1.28,1.44,1.94.09,2.13-.14,4.28-.27,6.89,2.87-.53,5.4-.92,7.89-1.51.38-.09.73-1.08.76-1.67.11-2.3.06-4.61.14-6.91,0-1.24.26-2.58,1.88-2.47s1.47,1.39,1.47,2.55c0,4.47,0,8.94,0,13.4,0,.49.14,1.1-.1,1.44a3,3,0,0,1-1.6,1.31c-.43.06-1.23-.66-1.43-1.2A13.08,13.08,0,0,1,144.94,41.18Z"/><path d="M118.11,30.59c-2.21.12-4.22.27-6.23.34-1.22,0-2.63,0-2.64-1.64s1.42-1.58,2.62-1.71q10.47-1.16,20.93-2.35c.56-.07,1.19-.33,1.65-.15a9.7,9.7,0,0,1,1.91,1.26c-.51.64-.92,1.7-1.55,1.85-2.1.5-4.29.68-6.45,1l-2.92.4c-3.84.53-3.82.53-3.85,4.3,0,3.28-.07,6.57-.18,9.85,0,1.2-.18,2.63-1.83,2.53s-1.49-1.43-1.47-2.58c0-3.56.08-7.13.11-10.69C118.22,32.23,118.15,31.48,118.11,30.59Z"/><path d="M249.13,32.38c.66,3.71,1.29,7.21,1.91,10.71.22,1.22.44,2.59-1.18,2.87s-1.86-1.1-2.08-2.31c-.5-2.75-1.15-5.49-1.5-8.26-.24-1.89-.88-2.8-2.92-2.38a4.44,4.44,0,0,1-2.29,0,10,10,0,0,1-2.16-1.51c.72-.59,1.38-1.58,2.18-1.7,5.4-.87,10.83-1.54,16.25-2.31,1.39-.2,2.75-.57,4.13-.83,1.15-.22,2.43-.39,2.76,1.09s-.89,1.89-2,2.11c-3.8.73-7.6,1.43-11.4,2.15C250.32,32.07,249.86,32.2,249.13,32.38Z"/><path d="M72.52,43l-1.43,1.59c-.62-.7-1.71-1.36-1.78-2.11-.38-4.31-.59-8.63-.66-13,0-.68,1-1.39,1.5-2.09.57.67,1.59,1.29,1.65,2C72.15,33.66,72.28,37.91,72.52,43Z"/></g></g></svg>