<?xml version="1.0" standalone="no"?>
<!DOCTYPE svg PUBLIC "-//W3C//DTD SVG 20010904//EN"
 "http://www.w3.org/TR/2001/REC-SVG-20010904/DTD/svg10.dtd">
<svg version="1.0" xmlns="http://www.w3.org/2000/svg"
 width="1269.000000pt" height="273.000000pt" viewBox="0 0 1269.000000 273.000000"
 preserveAspectRatio="xMidYMid meet">

<g transform="translate(0.000000,273.000000) scale(0.100000,-0.100000)"
fill="#000000" stroke="none">
<path d="M11604 2671 l57 -58 -53 -6 c-138 -17 -1226 -8 -4133 33 -770 11
-1787 25 -2260 31 -473 7 -1488 13 -2255 13 -1631 1 -1897 -7 -2075 -64 -33
-10 -105 -33 -160 -51 -199 -63 -331 -144 -425 -261 -59 -73 -92 -141 -194
-390 l-84 -208 28 0 c47 0 55 -43 55 -280 0 -231 -26 -447 -58 -488 -12 -15
-2 -136 18 -234 21 -96 68 -212 117 -287 172 -263 523 -417 828 -364 265 47
1663 72 4380 80 3420 9 6147 -29 6316 -89 24 -8 54 -7 134 6 192 33 345 95
481 198 104 78 179 170 234 283 54 113 67 166 70 285 2 52 9 117 15 143 17 67
8 173 -34 380 -43 211 -57 302 -49 337 5 26 8 27 45 22 39 -5 40 -4 33 19 -17
60 -121 255 -178 335 -76 110 -226 259 -336 338 -112 80 -538 336 -559 336
-11 0 4 -20 42 -59z m-6754 -81 c843 -10 2453 -32 3680 -50 1325 -20 2638 -29
2930 -21 l295 8 130 -79 c317 -194 481 -361 614 -626 20 -39 20 -44 6 -59 -47
-47 -46 -108 11 -396 49 -252 48 -227 26 -542 -7 -101 -15 -145 -36 -199 -86
-225 -292 -393 -572 -467 -96 -25 -170 -28 -334 -12 -488 48 -2457 76 -5425
76 -2868 0 -4678 -26 -5110 -74 -203 -22 -245 -22 -340 0 -170 41 -337 141
-430 259 -124 156 -192 403 -152 549 20 72 44 261 52 413 7 140 -8 295 -35
358 l-21 48 71 174 c89 219 117 269 199 351 100 100 239 169 443 219 45 11 91
25 101 30 26 15 194 30 442 39 325 12 2505 12 3455 1z"/>
<path d="M2369 2203 c-41 -71 -155 -192 -236 -250 -77 -55 -201 -109 -270
-119 -57 -7 -51 -14 -68 69 -2 12 -18 53 -35 90 -23 50 -35 67 -48 65 -27 -5
-25 -32 7 -107 38 -85 40 -121 9 -121 -34 0 -163 44 -248 84 -108 50 -188 105
-251 170 -63 67 -78 92 -72 117 7 23 -22 36 -42 19 -35 -29 -8 -87 87 -183 29
-30 82 -73 118 -96 129 -84 325 -161 410 -161 l45 0 14 -77 c57 -342 29 -552
-83 -619 -60 -35 -229 -9 -332 51 -50 29 -107 88 -169 173 -23 32 -49 63 -58
71 -19 15 -47 8 -47 -12 0 -13 60 -92 150 -196 81 -93 226 -154 371 -155 66
-1 81 3 116 26 54 35 99 109 119 193 13 57 15 99 10 225 -3 85 -13 184 -21
220 -22 98 -22 96 38 104 69 10 193 64 270 119 79 57 234 219 266 279 25 46
23 78 -3 78 -8 0 -29 -26 -47 -57z"/>
<path d="M7156 2204 c-58 -76 -121 -272 -152 -471 -5 -33 -11 -42 -29 -46 -33
-6 -37 20 -34 198 3 133 2 150 -13 153 -32 6 -39 -33 -36 -203 l3 -163 -30 -5
c-142 -23 -252 -36 -272 -31 -30 8 -42 -21 -20 -44 15 -15 27 -14 144 1 71 9
140 19 154 23 l26 6 7 -94 c30 -464 32 -478 59 -478 24 0 44 34 51 85 3 28 10
133 16 235 5 102 12 206 16 232 l7 47 54 11 c69 15 157 61 205 108 23 22 50
65 69 111 27 65 31 84 26 138 -9 113 -102 233 -180 233 -31 0 -41 -7 -71 -46z
m116 -29 c40 -37 77 -106 84 -156 5 -37 0 -59 -26 -122 -18 -45 -44 -87 -61
-101 -38 -32 -123 -73 -176 -85 -41 -8 -43 -8 -38 13 60 277 89 371 137 442
27 40 44 42 80 9z m-276 -557 c-3 -13 -9 -93 -13 -178 -8 -173 -16 -155 -27
62 -6 116 -5 127 11 131 33 9 35 7 29 -15z"/>
<path d="M4695 2218 c-3 -7 -4 -218 -3 -468 3 -447 3 -455 23 -455 20 0 20 7
20 465 0 435 -1 465 -18 468 -9 2 -19 -2 -22 -10z"/>
<path d="M11506 2148 c-3 -7 -7 -47 -11 -88 -3 -41 -8 -90 -12 -108 l-5 -33
-23 53 c-13 29 -26 61 -29 71 -8 26 -40 17 -44 -12 -4 -23 16 -77 58 -163 14
-30 16 -45 8 -82 -5 -24 -8 -62 -6 -83 3 -33 6 -38 28 -38 22 0 25 4 22 34 -5
58 6 68 31 30 26 -38 63 -50 74 -23 4 10 0 21 -9 28 -8 6 -27 34 -43 62 -29
51 -29 52 -15 122 7 38 13 107 14 153 1 72 -1 84 -17 87 -9 2 -19 -2 -21 -10z"/>
<path d="M4007 2114 c-4 -4 -7 -88 -7 -186 l0 -178 -37 -1 c-21 0 -58 -6 -83
-12 -34 -9 -45 -17 -45 -32 0 -22 17 -24 116 -10 l56 7 7 -41 c11 -70 45 -147
86 -193 48 -56 169 -119 238 -126 56 -5 95 11 90 36 -3 14 -15 17 -59 17 -76
0 -199 61 -241 119 -27 38 -76 172 -65 182 2 3 33 8 68 12 55 6 64 10 64 27 0
18 -6 20 -72 19 l-73 0 -2 180 c-3 154 -5 181 -18 184 -9 1 -19 0 -23 -4z"/>
<path d="M10174 2067 c-3 -9 -3 -20 0 -25 7 -12 286 -34 386 -30 77 3 85 5 85
23 0 19 -9 20 -135 26 -74 4 -179 10 -232 14 -85 7 -98 6 -104 -8z"/>
<path d="M11623 2058 c-15 -18 -33 -110 -33 -166 1 -119 118 -232 214 -208 46
11 71 62 74 152 4 73 1 85 -21 121 -32 50 -71 67 -141 61 -53 -4 -54 -4 -53
21 2 28 -23 40 -40 19z m179 -120 c28 -30 30 -36 26 -100 -6 -112 -57 -137
-129 -64 -39 38 -59 84 -59 131 0 31 5 38 33 50 55 24 95 19 129 -17z"/>
<path d="M4485 2050 c-11 -18 -22 -323 -16 -440 6 -96 8 -105 26 -105 19 0 20
8 23 102 l3 103 27 5 c61 13 77 21 77 40 0 18 -6 20 -54 17 l-54 -4 4 143 c4
128 2 144 -13 147 -9 2 -19 -2 -23 -8z"/>
<path d="M5021 2034 c-19 -8 -75 -23 -125 -33 -67 -13 -92 -22 -94 -35 -2 -9
4 -19 14 -23 23 -9 138 12 215 38 73 26 82 20 103 -61 17 -69 40 -229 33 -236
-3 -3 -67 -10 -144 -15 -76 -6 -142 -14 -147 -19 -5 -5 -6 -16 -2 -25 5 -14
21 -15 128 -9 68 4 136 8 152 8 29 1 30 0 47 -89 28 -138 26 -153 -18 -172
-28 -11 -64 -14 -143 -12 -93 4 -105 2 -108 -13 -5 -27 37 -38 143 -38 100 0
137 9 173 42 27 27 29 82 6 198 -10 48 -13 85 -8 90 5 5 77 15 159 22 139 12
150 15 150 33 0 18 -7 20 -75 20 -41 0 -115 -2 -165 -5 l-90 -5 -16 105 c-22
136 -29 169 -46 202 -24 49 -76 61 -142 32z"/>
<path d="M10094 2037 c-7 -20 21 -85 159 -367 68 -140 128 -266 132 -280 16
-53 124 -270 134 -270 14 0 14 -32 0 -102 -9 -45 -14 -54 -32 -54 -45 2 -100
-127 -68 -159 5 -6 11 -23 13 -40 2 -25 7 -30 30 -30 20 0 39 -12 67 -42 43
-48 85 -57 114 -25 28 31 67 114 67 143 0 38 -39 81 -104 115 -44 23 -53 31
-46 45 18 33 66 445 80 694 14 246 13 294 -6 302 -8 3 -19 2 -23 -3 -5 -5 -13
-108 -19 -229 -12 -229 -39 -510 -51 -533 -5 -9 -27 28 -59 100 -29 63 -52
118 -52 121 0 4 -58 125 -128 270 -71 144 -134 278 -142 297 -7 19 -18 41 -23
48 -12 16 -36 15 -43 -1z m509 -1244 c-7 -2 -21 -2 -30 0 -10 3 -4 5 12 5 17
0 24 -2 18 -5z"/>
<path d="M11017 2024 c-10 -10 -9 -59 2 -86 37 -93 43 -138 31 -217 -14 -83
-10 -111 15 -111 17 0 20 7 29 61 5 31 10 36 26 32 29 -8 35 19 15 72 -24 61
-13 68 15 10 28 -57 53 -75 107 -75 35 0 50 6 79 33 31 28 37 41 42 85 6 67
-9 103 -66 152 -49 43 -100 53 -137 26 -15 -10 -23 -11 -38 -2 -15 9 -21 7
-33 -8 -8 -11 -14 -29 -14 -40 0 -30 -21 -5 -29 36 -6 31 -29 47 -44 32z m267
-87 c19 -18 38 -46 42 -61 16 -64 -33 -127 -87 -113 -28 8 -54 60 -64 128 -6
41 -4 48 16 63 34 23 53 20 93 -17z"/>
<path d="M8674 1985 c-9 -23 5 -35 41 -35 19 0 81 -7 137 -15 174 -25 248 -34
391 -46 142 -12 167 -8 154 24 -4 11 -40 17 -139 26 -140 12 -217 22 -386 46
-132 19 -191 19 -198 0z"/>
<path d="M8119 1931 c-47 -26 -82 -110 -100 -241 -7 -52 -18 -102 -26 -111
-14 -17 -17 -42 -6 -53 4 -4 6 -56 4 -117 -2 -94 -1 -110 14 -115 27 -11 39
12 52 92 6 42 13 77 15 79 2 2 37 -12 78 -32 41 -19 95 -43 120 -53 88 -35
409 -190 516 -250 60 -33 119 -63 131 -66 26 -7 43 2 43 21 0 15 -136 91 -355
198 -128 63 -201 97 -413 190 -102 45 -113 55 -104 92 6 22 28 43 88 83 43 29
105 79 137 110 51 51 57 61 55 92 -3 31 -9 38 -56 63 -70 38 -144 44 -193 18z
m163 -62 c21 -11 38 -23 38 -28 0 -14 -92 -93 -173 -148 -42 -29 -79 -53 -81
-53 -2 0 3 33 10 73 16 92 45 160 75 175 29 14 81 7 131 -19z"/>
<path d="M9013 1865 c-7 -20 4 -376 15 -450 6 -41 11 -50 27 -50 23 0 23 -9 9
310 -8 178 -11 200 -27 203 -9 2 -20 -4 -24 -13z"/>
<path d="M2718 1818 c-52 -56 -52 -91 1 -142 52 -51 114 -61 149 -23 26 28 37
80 28 132 -8 43 -53 75 -105 75 -27 0 -42 -8 -73 -42z"/>
<path d="M7528 1783 c-24 -27 -57 -78 -73 -115 -21 -48 -35 -68 -50 -70 -16
-2 -21 -12 -23 -47 -2 -27 -10 -50 -20 -57 -14 -10 -14 -16 -4 -35 7 -15 13
-78 14 -164 3 -132 4 -140 23 -140 18 0 21 9 26 105 4 58 10 124 14 147 7 38
10 42 51 52 48 12 132 14 223 5 73 -8 72 -4 35 -153 -14 -57 -23 -110 -20
-117 6 -17 32 -18 41 -3 15 24 54 203 60 277 12 129 -34 247 -123 319 -75 61
-113 60 -174 -4z m143 -37 c34 -25 51 -49 71 -98 15 -36 29 -80 33 -99 l6 -35
-160 1 c-89 0 -161 0 -161 1 0 0 7 25 16 55 33 109 97 209 134 209 10 0 37
-15 61 -34z"/>
<path d="M9195 1707 c-14 -35 122 -261 154 -255 29 6 23 42 -15 91 -20 26 -51
76 -68 110 -30 60 -60 83 -71 54z"/>
<path d="M3262 1697 c-18 -7 -59 -36 -92 -64 -32 -29 -65 -53 -73 -53 -27 0
-38 -29 -40 -106 -2 -67 0 -79 15 -82 12 -2 21 6 29 25 39 101 73 154 121 193
73 58 105 54 129 -15 15 -43 19 -381 6 -463 -6 -34 -4 -44 9 -49 8 -3 23 1 32
10 13 14 16 50 16 254 1 268 -5 301 -64 341 -37 25 -42 25 -88 9z"/>
<path d="M2137 1658 c-23 -20 -46 -56 -61 -92 -19 -48 -24 -54 -29 -36 -4 14
-12 21 -24 18 -16 -3 -18 -14 -18 -93 0 -85 2 -95 41 -175 78 -163 245 -296
369 -295 66 1 119 39 151 110 20 41 24 67 24 146 0 105 -20 183 -65 251 -49
74 -226 186 -308 195 -37 4 -47 1 -80 -29z m168 -60 c80 -41 156 -100 178
-137 59 -100 75 -251 37 -339 -40 -92 -97 -106 -206 -52 -112 54 -200 162
-249 301 -11 30 -11 38 -1 42 7 3 28 45 47 93 18 49 45 99 58 112 30 28 49 25
136 -20z"/>
<path d="M9535 1588 c-12 -29 -47 -107 -75 -173 -29 -66 -74 -163 -100 -215
-89 -179 -134 -290 -122 -302 18 -18 42 0 64 49 11 27 62 136 113 243 126 267
189 416 182 435 -12 31 -38 15 -62 -37z"/>
<path d="M2719 1544 c-9 -11 -15 -53 -18 -126 -3 -103 -2 -111 25 -164 57
-112 229 -221 242 -152 2 11 -13 23 -50 40 -61 29 -120 85 -148 144 -25 51
-28 174 -5 218 9 16 13 36 11 43 -7 18 -41 16 -57 -3z"/>
</g>
</svg>
