<svg xmlns="http://www.w3.org/2000/svg" viewBox="0 0 303.15 65.73"><defs><style>.cls-1{fill:none;stroke:#000;stroke-miterlimit:10;stroke-width:2px;}</style></defs><g id="Livello_2" data-name="Livello 2"><g id="Livello_1-2" data-name="Livello 1"><path class="cls-1" d="M301.48,44.65c1.35,9.63-6.57,18.71-20,20-.86-3.05-257-3.38-260,0-7.12,0-19.63-4.27-20-20,1.24-1.29,3.11-19.77,0-20C6.07,14,5.7,8.28,21.48,4.65c.71-4.64,262.43,2.54,260,0,7.31,4.37,15.12,8.31,20,20C296.73,24.1,304.37,40.3,301.48,44.65Z"/><path d="M180.44,37.55c.18,3,.49,5.43.41,7.86,0,.94-.84,2.51-1.51,2.63-1.52.28-1.74-1.13-1.8-2.42-.16-3.09.18-6.36-.71-9.23-1-3.34-.91-6.49-.85-9.86.11-5.24,4.46-9.31,9.6-8.06a33.76,33.76,0,0,1,6.23,2.35,4.85,4.85,0,0,1,2.92,4.81,4.31,4.31,0,0,1-3.39,4.15c-2.82.8-5.72,1.29-8.59,1.9-.76.16-1.53.26-2.88.49a25.65,25.65,0,0,0,2.2,1.94c3.52,2.31,7.07,4.58,10.6,6.87.67.43,1.58.72,1.93,1.34a7.42,7.42,0,0,1,.41,2.55c-.79.09-1.76.52-2.32.21-3.32-1.87-6.55-3.91-9.8-5.91C182.23,38.76,181.59,38.31,180.44,37.55Zm10.85-11.9.15-1a60.88,60.88,0,0,0-6.24-2.42c-4-1.07-6.57,1.81-5.31,6.07C183.7,27.55,187.75,27.69,191.29,25.65Z"/><path d="M85.88,37.74a30,30,0,0,1,.35,4.61A7.71,7.71,0,0,1,85,44.9c-.65-.75-1.77-1.44-1.87-2.26C82.41,37,81.88,31.3,81.26,25.45c-.39-.05-1,.07-1.24-.18-.63-.58-1.53-1.36-1.5-2s1.06-1.82,1.66-1.83c4.11-.06,8.23,0,12.33.28a4.32,4.32,0,0,1,4.07,4,4.9,4.9,0,0,1-2.84,5.09c-1.94,1-4,1.76-6.38,2.76.81.62,1.41,1.06,2,1.53,3.22,2.58,6.46,5.14,9.65,7.75,1.11.92,2,2.14.78,3.46s-2.12,0-3-.71L86.51,37.29Zm-.21-7.51,7.75-3.35-.19-1.18A40.54,40.54,0,0,0,88.75,25c-4.35-.24-4.7.27-3.59,4.69C85.17,29.73,85.26,29.78,85.67,30.23Z"/><path d="M30.8,39.94c-1.55-.5-2.94-1-4.35-1.4-4.92-1.4-9.48-6.91-9.93-12a8,8,0,0,1,2.37-6.73C23.48,15.24,32.51,14,38,17.39c.69.43.83,1.77,1.23,2.69-.89.2-1.92.8-2.65.55-4.71-1.63-9.27-2.11-13.76.68-3.17,2-4,4.13-2.29,7.41s3.8,5.6,7.52,6.42c2.44.54,5.21,1,5.89,4.09S32.6,44.55,30.36,46a50.54,50.54,0,0,1-9.07,4c-.43.17-1.88-.89-1.82-1.21a3.82,3.82,0,0,1,1.36-2.58c1.52-.8,3.33-1,5-1.66A8.33,8.33,0,0,0,30.8,39.94Z"/><path d="M265.78,46.42c-3-.12-5.66-.75-7.08-3.86s-1.47-6.45,1-8.88c3.91-3.82,8.23-7.2,12.4-10.74a9.59,9.59,0,0,1,2.56-1.72,8,8,0,0,1,2.51-.16c0,1,.29,2.06-.1,2.81s-1.5,1.1-2.24,1.69c-4,3.22-8.16,6.33-12,9.78a6,6,0,0,0-1.57,4.39c.21,2.52,3.57,3.69,6.57,2.61a7.21,7.21,0,0,0,4.93-6.83,3.07,3.07,0,0,1,2.68-3.37c2.8-.6,5.58-1.31,8.41-1.68.79-.11,1.72.82,2.59,1.27-.64.77-1.13,2-1.93,2.24a38,38,0,0,1-6.28,1.37c-1.44.23-2.12.71-2.31,2.35C275.41,42.35,270.43,46.49,265.78,46.42Z"/><path d="M168.12,38.35c-4.44,1.1-8.55,2-12.58,3.2-.95.28-1.58,1.57-2.45,2.26a18.07,18.07,0,0,1-2.34,1.36c-.3-.9-.94-1.85-.81-2.67a10.52,10.52,0,0,1,1.45-3.24q4.52-8.26,9.08-16.5c1.75-3.18,3.65-3.29,5.58-.23a16.64,16.64,0,0,1,1.85,3.85c1.63,5.32,3.22,10.65,4.61,16,.22.84-.67,2-1,3a9.57,9.57,0,0,1-2-2.26A38.08,38.08,0,0,1,168.12,38.35Zm-.83-3.66c-1.28-3.53-2.4-6.62-3.53-9.71a96.67,96.67,0,0,0-6.42,10.79c-.18.34-.3.7-.65,1.52Z"/><path d="M131.69,24c-.52-1-1.55-2.07-1.4-2.94.12-.67,1.66-1.38,2.66-1.57,4.76-.9,9.56-1.63,14.34-2.41,1.35-.22,2.93-.59,3.21,1.34s-1.25,2.13-2.63,2.37L136,22.85c-.43,2.33-.84,4.54-1.33,7.14,2.72-.34,5.06-.6,7.39-.92,1.36-.19,2.93-.63,3.24,1.28s-1.3,2.24-2.78,2.44c-2.2.3-4.4.71-6.61.85-1.89.12-2.31,1.18-1.58,2.5a9.59,9.59,0,0,0,3.07,3.46,47.25,47.25,0,0,0,6.25,2.88c1.31.57,2.39,1.47,1.55,2.86-.35.57-2,.83-2.77.56a31.49,31.49,0,0,1-6.72-3c-5.21-3.33-5.19-6.55-4.67-12a67.83,67.83,0,0,1,1.39-7Z"/><path d="M74.2,36.16c-3.72,1.34-7.13,2.65-10.59,3.78a5.49,5.49,0,0,0-4,4c-.26.87-1.45,1.47-2.22,2.19-.33-1-.71-2-1-3a5.89,5.89,0,0,1-.11-1.83c0-.68,0-1.7.38-2,2.89-2,3.29-5.31,4.72-8.08.44-.84.74-1.75,1.11-2.63,2.4-5.83,5.88-6.51,10.1-1.79a23.87,23.87,0,0,1,3.53,5.6c1.41,2.93,2.53,6,3.75,9,.5,1.26,1.21,2.81-.5,3.5s-2-1-2.52-2.15C76,40.58,75.11,38.37,74.2,36.16Zm-1.06-3.49a56.11,56.11,0,0,0-4.51-4.57,2.33,2.33,0,0,0-2.25.45c-1.19,2.26-2.1,4.66-3.29,7.42.89-.2,1.26-.24,1.61-.36Z"/><path d="M238,29.77c-1,3.8-1.87,7.08-2.69,10.37-.32,1.29-.63,2.74-2.35,2.22s-1.36-1.85-1-3.19c1.18-4.36,2.22-8.77,3.49-13.1a12.26,12.26,0,0,1,2-3c.9.87,2.13,1.58,2.66,2.64,2.17,4.37,4.13,8.86,6.17,13.31H247a29.94,29.94,0,0,0,2-3.83c1.65-4.63,3.18-9.31,4.76-14a8.82,8.82,0,0,1,.85-2.2,1.89,1.89,0,0,1,1.51-.79c.47.09.9.76,1.19,1.27a1.53,1.53,0,0,1,0,1.15c-2.32,6.49-4.54,13-7.11,19.4-.52,1.3-2.39,2.86-3.6,2.83s-2.7-1.7-3.47-3C241.34,36.81,239.87,33.5,238,29.77Z"/><path d="M201.68,29.84c-.16,1.55-.32,2.37-.32,3.19,0,3.26.17,6.52,0,9.77,0,.85-1,1.65-1.57,2.47-.58-.8-1.63-1.58-1.66-2.4-.13-3.73,0-7.47.08-11.2a5.27,5.27,0,0,1,.29-2.34c.63-1.11,1.4-2.62,2.39-2.89a4,4,0,0,1,3.43,1.35c2.37,3.18,4.4,6.61,6.56,9.94l1.7,2.65c1-2.4,1.91-4.24,2.5-6.17,1.17-3.8,2.08-7.68,3.29-11.46.27-.82,1.38-1.36,2.1-2,.34.88,1.16,1.89.95,2.61-1.67,5.79-3.52,11.53-5.34,17.28a5.78,5.78,0,0,1-.78,1.47c-1.76,2.64-3.88,2.74-5.64.11-1.93-2.91-3.65-6-5.51-8.93C203.56,32.27,202.81,31.38,201.68,29.84Z"/><path d="M106.76,27.28a27.5,27.5,0,0,0-2.71.64c-1.26.44-2.26.25-2.63-1.12a2,2,0,0,1,1.65-2.66c3.67-.7,7.35-1.32,11-2a64.46,64.46,0,0,1,6.58-1.09c.75-.06,1.57.83,2.37,1.28-.55.75-1,2-1.66,2.17a49.67,49.67,0,0,1-8.19,1.54c-2.45.22-3.2,1.36-3.19,3.64,0,4-.14,8.11-.23,12.16a5.15,5.15,0,0,1-.08,1.89A15.51,15.51,0,0,1,108.12,46c-.54-.76-1.52-1.52-1.53-2.29-.07-4.61.09-9.22.17-13.83C106.77,29.14,106.76,28.36,106.76,27.28Z"/><path d="M48.61,26.86c-.36,4.58-.62,9.08-1.12,13.55-.11.94-1.11,1.77-1.71,2.65-.47-1-1.37-1.94-1.35-2.89.07-4,.42-7.92.7-12.33a44,44,0,0,1-5.7,1.83,3.07,3.07,0,0,1-2.67-.92c-.7-1.24.14-2.24,1.52-2.63C44,24.51,49.74,22.87,55.5,21.35a3.65,3.65,0,0,1,2.67.29c1.23.84.53,2.66-1.24,3.15C54.26,25.53,51.55,26.14,48.61,26.86Z"/><path d="M228.67,28.3c-.61,4.09-1.12,8-1.85,11.94-.12.68-1.17,1.19-1.79,1.78-.44-.68-1.3-1.4-1.24-2,.4-4.42,1-8.84,1.59-13.23a1.94,1.94,0,0,1,1.41-1.28c.51,0,1.22.59,1.56,1.12A4.42,4.42,0,0,1,228.67,28.3Z"/></g></g></svg>